<mxfile host="app.diagrams.net" modified="2022-04-25T17:49:02.129Z" agent="5.0 (X11; Linux x86_64) AppleWebKit/537.36 (KHTML, like Gecko) Chrome/100.0.4896.127 Safari/537.36" etag="DsqSjOU6b7jpDqp0wX5g" version="17.4.6" type="github">
  <diagram name="Page-1" id="e56a1550-8fbb-45ad-956c-1786394a9013">
    <mxGraphModel dx="2238" dy="2340" grid="1" gridSize="10" guides="1" tooltips="1" connect="1" arrows="1" fold="1" page="1" pageScale="1" pageWidth="1100" pageHeight="850" background="none" math="0" shadow="0">
      <root>
        <mxCell id="0" />
        <mxCell id="1" parent="0" />
        <mxCell id="2e49270ec7c68f3f-8" value="Table" style="swimlane;html=1;fontStyle=0;childLayout=stackLayout;horizontal=1;startSize=26;fillColor=#e0e0e0;horizontalStack=0;resizeParent=1;resizeLast=0;collapsible=1;marginBottom=0;swimlaneFillColor=#ffffff;align=center;rounded=0;shadow=0;comic=0;labelBackgroundColor=none;strokeWidth=1;fontFamily=Verdana;fontSize=14;swimlaneLine=1;" parent="1" vertex="1">
          <mxGeometry x="600" y="771" width="160" height="144" as="geometry" />
        </mxCell>
        <mxCell id="2e49270ec7c68f3f-9" value="uniqueId" style="shape=partialRectangle;top=0;left=0;right=0;bottom=1;html=1;align=left;verticalAlign=middle;fillColor=none;spacingLeft=34;spacingRight=4;whiteSpace=wrap;overflow=hidden;rotatable=0;points=[[0,0.5],[1,0.5]];portConstraint=eastwest;dropTarget=0;fontStyle=5;" parent="2e49270ec7c68f3f-8" vertex="1">
          <mxGeometry y="26" width="160" height="30" as="geometry" />
        </mxCell>
        <mxCell id="2e49270ec7c68f3f-10" value="PK" style="shape=partialRectangle;top=0;left=0;bottom=0;html=1;fillColor=none;align=left;verticalAlign=middle;spacingLeft=4;spacingRight=4;whiteSpace=wrap;overflow=hidden;rotatable=0;points=[];portConstraint=eastwest;part=1;" parent="2e49270ec7c68f3f-9" vertex="1" connectable="0">
          <mxGeometry width="30" height="30" as="geometry" />
        </mxCell>
        <mxCell id="2e49270ec7c68f3f-11" value="row 1" style="shape=partialRectangle;top=0;left=0;right=0;bottom=0;html=1;align=left;verticalAlign=top;fillColor=none;spacingLeft=34;spacingRight=4;whiteSpace=wrap;overflow=hidden;rotatable=0;points=[[0,0.5],[1,0.5]];portConstraint=eastwest;dropTarget=0;" parent="2e49270ec7c68f3f-8" vertex="1">
          <mxGeometry y="56" width="160" height="26" as="geometry" />
        </mxCell>
        <mxCell id="2e49270ec7c68f3f-12" value="" style="shape=partialRectangle;top=0;left=0;bottom=0;html=1;fillColor=none;align=left;verticalAlign=top;spacingLeft=4;spacingRight=4;whiteSpace=wrap;overflow=hidden;rotatable=0;points=[];portConstraint=eastwest;part=1;" parent="2e49270ec7c68f3f-11" vertex="1" connectable="0">
          <mxGeometry width="30" height="26" as="geometry" />
        </mxCell>
        <mxCell id="2e49270ec7c68f3f-13" value="row 2" style="shape=partialRectangle;top=0;left=0;right=0;bottom=0;html=1;align=left;verticalAlign=top;fillColor=none;spacingLeft=34;spacingRight=4;whiteSpace=wrap;overflow=hidden;rotatable=0;points=[[0,0.5],[1,0.5]];portConstraint=eastwest;dropTarget=0;" parent="2e49270ec7c68f3f-8" vertex="1">
          <mxGeometry y="82" width="160" height="26" as="geometry" />
        </mxCell>
        <mxCell id="2e49270ec7c68f3f-14" value="" style="shape=partialRectangle;top=0;left=0;bottom=0;html=1;fillColor=none;align=left;verticalAlign=top;spacingLeft=4;spacingRight=4;whiteSpace=wrap;overflow=hidden;rotatable=0;points=[];portConstraint=eastwest;part=1;" parent="2e49270ec7c68f3f-13" vertex="1" connectable="0">
          <mxGeometry width="30" height="26" as="geometry" />
        </mxCell>
        <mxCell id="2e49270ec7c68f3f-15" value="row 3" style="shape=partialRectangle;top=0;left=0;right=0;bottom=0;html=1;align=left;verticalAlign=top;fillColor=none;spacingLeft=34;spacingRight=4;whiteSpace=wrap;overflow=hidden;rotatable=0;points=[[0,0.5],[1,0.5]];portConstraint=eastwest;dropTarget=0;" parent="2e49270ec7c68f3f-8" vertex="1">
          <mxGeometry y="108" width="160" height="26" as="geometry" />
        </mxCell>
        <mxCell id="2e49270ec7c68f3f-16" value="" style="shape=partialRectangle;top=0;left=0;bottom=0;html=1;fillColor=none;align=left;verticalAlign=top;spacingLeft=4;spacingRight=4;whiteSpace=wrap;overflow=hidden;rotatable=0;points=[];portConstraint=eastwest;part=1;" parent="2e49270ec7c68f3f-15" vertex="1" connectable="0">
          <mxGeometry width="30" height="26" as="geometry" />
        </mxCell>
        <mxCell id="2e49270ec7c68f3f-17" value="" style="shape=partialRectangle;top=0;left=0;right=0;bottom=0;html=1;align=left;verticalAlign=top;fillColor=none;spacingLeft=34;spacingRight=4;whiteSpace=wrap;overflow=hidden;rotatable=0;points=[[0,0.5],[1,0.5]];portConstraint=eastwest;dropTarget=0;" parent="2e49270ec7c68f3f-8" vertex="1">
          <mxGeometry y="134" width="160" height="10" as="geometry" />
        </mxCell>
        <mxCell id="2e49270ec7c68f3f-18" value="" style="shape=partialRectangle;top=0;left=0;bottom=0;html=1;fillColor=none;align=left;verticalAlign=top;spacingLeft=4;spacingRight=4;whiteSpace=wrap;overflow=hidden;rotatable=0;points=[];portConstraint=eastwest;part=1;" parent="2e49270ec7c68f3f-17" vertex="1" connectable="0">
          <mxGeometry width="30" height="10" as="geometry" />
        </mxCell>
        <mxCell id="2e49270ec7c68f3f-19" value="Table" style="swimlane;html=1;fontStyle=0;childLayout=stackLayout;horizontal=1;startSize=26;fillColor=#e0e0e0;horizontalStack=0;resizeParent=1;resizeLast=0;collapsible=1;marginBottom=0;swimlaneFillColor=#ffffff;align=center;rounded=0;shadow=0;comic=0;labelBackgroundColor=none;strokeWidth=1;fontFamily=Verdana;fontSize=14" parent="1" vertex="1">
          <mxGeometry x="330" y="801" width="160" height="256" as="geometry" />
        </mxCell>
        <mxCell id="2e49270ec7c68f3f-20" value="uniqueId" style="shape=partialRectangle;top=0;left=0;right=0;bottom=1;html=1;align=left;verticalAlign=middle;fillColor=none;spacingLeft=34;spacingRight=4;whiteSpace=wrap;overflow=hidden;rotatable=0;points=[[0,0.5],[1,0.5]];portConstraint=eastwest;dropTarget=0;fontStyle=5;" parent="2e49270ec7c68f3f-19" vertex="1">
          <mxGeometry y="26" width="160" height="30" as="geometry" />
        </mxCell>
        <mxCell id="2e49270ec7c68f3f-21" value="PK" style="shape=partialRectangle;top=0;left=0;bottom=0;html=1;fillColor=none;align=left;verticalAlign=middle;spacingLeft=4;spacingRight=4;whiteSpace=wrap;overflow=hidden;rotatable=0;points=[];portConstraint=eastwest;part=1;" parent="2e49270ec7c68f3f-20" vertex="1" connectable="0">
          <mxGeometry width="30" height="30" as="geometry" />
        </mxCell>
        <mxCell id="2e49270ec7c68f3f-22" value="row 1" style="shape=partialRectangle;top=0;left=0;right=0;bottom=0;html=1;align=left;verticalAlign=top;fillColor=none;spacingLeft=34;spacingRight=4;whiteSpace=wrap;overflow=hidden;rotatable=0;points=[[0,0.5],[1,0.5]];portConstraint=eastwest;dropTarget=0;" parent="2e49270ec7c68f3f-19" vertex="1">
          <mxGeometry y="56" width="160" height="26" as="geometry" />
        </mxCell>
        <mxCell id="2e49270ec7c68f3f-23" value="" style="shape=partialRectangle;top=0;left=0;bottom=0;html=1;fillColor=none;align=left;verticalAlign=top;spacingLeft=4;spacingRight=4;whiteSpace=wrap;overflow=hidden;rotatable=0;points=[];portConstraint=eastwest;part=1;" parent="2e49270ec7c68f3f-22" vertex="1" connectable="0">
          <mxGeometry width="30" height="26" as="geometry" />
        </mxCell>
        <mxCell id="2e49270ec7c68f3f-24" value="row 2" style="shape=partialRectangle;top=0;left=0;right=0;bottom=0;html=1;align=left;verticalAlign=top;fillColor=none;spacingLeft=34;spacingRight=4;whiteSpace=wrap;overflow=hidden;rotatable=0;points=[[0,0.5],[1,0.5]];portConstraint=eastwest;dropTarget=0;" parent="2e49270ec7c68f3f-19" vertex="1">
          <mxGeometry y="82" width="160" height="26" as="geometry" />
        </mxCell>
        <mxCell id="2e49270ec7c68f3f-25" value="" style="shape=partialRectangle;top=0;left=0;bottom=0;html=1;fillColor=none;align=left;verticalAlign=top;spacingLeft=4;spacingRight=4;whiteSpace=wrap;overflow=hidden;rotatable=0;points=[];portConstraint=eastwest;part=1;" parent="2e49270ec7c68f3f-24" vertex="1" connectable="0">
          <mxGeometry width="30" height="26" as="geometry" />
        </mxCell>
        <mxCell id="2e49270ec7c68f3f-26" value="row 3" style="shape=partialRectangle;top=0;left=0;right=0;bottom=0;html=1;align=left;verticalAlign=top;fillColor=none;spacingLeft=34;spacingRight=4;whiteSpace=wrap;overflow=hidden;rotatable=0;points=[[0,0.5],[1,0.5]];portConstraint=eastwest;dropTarget=0;" parent="2e49270ec7c68f3f-19" vertex="1">
          <mxGeometry y="108" width="160" height="26" as="geometry" />
        </mxCell>
        <mxCell id="2e49270ec7c68f3f-27" value="" style="shape=partialRectangle;top=0;left=0;bottom=0;html=1;fillColor=none;align=left;verticalAlign=top;spacingLeft=4;spacingRight=4;whiteSpace=wrap;overflow=hidden;rotatable=0;points=[];portConstraint=eastwest;part=1;" parent="2e49270ec7c68f3f-26" vertex="1" connectable="0">
          <mxGeometry width="30" height="26" as="geometry" />
        </mxCell>
        <mxCell id="2e49270ec7c68f3f-1" value="Категория" style="swimlane;html=1;fontStyle=0;childLayout=stackLayout;horizontal=1;startSize=26;fillColor=#e0e0e0;horizontalStack=0;resizeParent=1;resizeLast=0;collapsible=1;marginBottom=0;swimlaneFillColor=#ffffff;align=center;rounded=0;shadow=0;comic=0;labelBackgroundColor=none;strokeWidth=1;fontFamily=Verdana;fontSize=14" parent="2e49270ec7c68f3f-19" vertex="1">
          <mxGeometry y="134" width="160" height="112" as="geometry" />
        </mxCell>
        <mxCell id="2e49270ec7c68f3f-2" value="row 1" style="shape=partialRectangle;top=0;left=0;right=0;bottom=0;html=1;align=left;verticalAlign=middle;fillColor=none;spacingLeft=60;spacingRight=4;whiteSpace=wrap;overflow=hidden;rotatable=0;points=[[0,0.5],[1,0.5]];portConstraint=eastwest;dropTarget=0;fontStyle=5;" parent="2e49270ec7c68f3f-1" vertex="1">
          <mxGeometry y="26" width="160" height="30" as="geometry" />
        </mxCell>
        <mxCell id="2e49270ec7c68f3f-3" value="PK,FK1" style="shape=partialRectangle;fontStyle=1;top=0;left=0;bottom=0;html=1;fillColor=none;align=left;verticalAlign=middle;spacingLeft=4;spacingRight=4;whiteSpace=wrap;overflow=hidden;rotatable=0;points=[];portConstraint=eastwest;part=1;" parent="2e49270ec7c68f3f-2" vertex="1" connectable="0">
          <mxGeometry width="56" height="30" as="geometry" />
        </mxCell>
        <mxCell id="2e49270ec7c68f3f-4" value="row 2" style="shape=partialRectangle;top=0;left=0;right=0;bottom=1;html=1;align=left;verticalAlign=middle;fillColor=none;spacingLeft=60;spacingRight=4;whiteSpace=wrap;overflow=hidden;rotatable=0;points=[[0,0.5],[1,0.5]];portConstraint=eastwest;dropTarget=0;fontStyle=5;" parent="2e49270ec7c68f3f-1" vertex="1">
          <mxGeometry y="56" width="160" height="30" as="geometry" />
        </mxCell>
        <mxCell id="2e49270ec7c68f3f-5" value="PK,FK2" style="shape=partialRectangle;fontStyle=1;top=0;left=0;bottom=0;html=1;fillColor=none;align=left;verticalAlign=middle;spacingLeft=4;spacingRight=4;whiteSpace=wrap;overflow=hidden;rotatable=0;points=[];portConstraint=eastwest;part=1;" parent="2e49270ec7c68f3f-4" vertex="1" connectable="0">
          <mxGeometry width="56" height="30" as="geometry" />
        </mxCell>
        <mxCell id="2e49270ec7c68f3f-6" value="row 1" style="shape=partialRectangle;top=0;left=0;right=0;bottom=0;html=1;align=left;verticalAlign=top;fillColor=none;spacingLeft=60;spacingRight=4;whiteSpace=wrap;overflow=hidden;rotatable=0;points=[[0,0.5],[1,0.5]];portConstraint=eastwest;dropTarget=0;" parent="2e49270ec7c68f3f-1" vertex="1">
          <mxGeometry y="86" width="160" height="26" as="geometry" />
        </mxCell>
        <mxCell id="2e49270ec7c68f3f-7" value="" style="shape=partialRectangle;top=0;left=0;bottom=0;html=1;fillColor=none;align=left;verticalAlign=top;spacingLeft=4;spacingRight=4;whiteSpace=wrap;overflow=hidden;rotatable=0;points=[];portConstraint=eastwest;part=1;" parent="2e49270ec7c68f3f-6" vertex="1" connectable="0">
          <mxGeometry width="56" height="26" as="geometry" />
        </mxCell>
        <mxCell id="2e49270ec7c68f3f-28" value="" style="shape=partialRectangle;top=0;left=0;right=0;bottom=0;html=1;align=left;verticalAlign=top;fillColor=none;spacingLeft=34;spacingRight=4;whiteSpace=wrap;overflow=hidden;rotatable=0;points=[[0,0.5],[1,0.5]];portConstraint=eastwest;dropTarget=0;" parent="2e49270ec7c68f3f-19" vertex="1">
          <mxGeometry y="246" width="160" height="10" as="geometry" />
        </mxCell>
        <mxCell id="2e49270ec7c68f3f-29" value="" style="shape=partialRectangle;top=0;left=0;bottom=0;html=1;fillColor=none;align=left;verticalAlign=top;spacingLeft=4;spacingRight=4;whiteSpace=wrap;overflow=hidden;rotatable=0;points=[];portConstraint=eastwest;part=1;" parent="2e49270ec7c68f3f-28" vertex="1" connectable="0">
          <mxGeometry width="30" height="10" as="geometry" />
        </mxCell>
        <mxCell id="2e49270ec7c68f3f-55" value="" style="edgeStyle=orthogonalEdgeStyle;html=1;endArrow=ERoneToMany;startArrow=ERmandOne;labelBackgroundColor=none;fontFamily=Verdana;fontSize=14;entryX=0;entryY=0.5;exitX=0;exitY=0.5;" parent="2e49270ec7c68f3f-19" source="2e49270ec7c68f3f-20" target="2e49270ec7c68f3f-6" edge="1">
          <mxGeometry width="100" height="100" relative="1" as="geometry">
            <mxPoint x="-190" y="70" as="sourcePoint" />
            <mxPoint x="-90" y="-30" as="targetPoint" />
            <Array as="points">
              <mxPoint x="-40" y="41" />
              <mxPoint x="-40" y="-121" />
            </Array>
          </mxGeometry>
        </mxCell>
        <mxCell id="2e49270ec7c68f3f-30" value="Table" style="swimlane;html=1;fontStyle=0;childLayout=stackLayout;horizontal=1;startSize=26;fillColor=#e0e0e0;horizontalStack=0;resizeParent=1;resizeLast=0;collapsible=1;marginBottom=0;swimlaneFillColor=#ffffff;align=center;rounded=0;shadow=0;comic=0;labelBackgroundColor=none;strokeWidth=1;fontFamily=Verdana;fontSize=14" parent="1" vertex="1">
          <mxGeometry x="620" y="850" width="160" height="144" as="geometry" />
        </mxCell>
        <mxCell id="2e49270ec7c68f3f-31" value="uniqueId" style="shape=partialRectangle;top=0;left=0;right=0;bottom=1;html=1;align=left;verticalAlign=middle;fillColor=none;spacingLeft=34;spacingRight=4;whiteSpace=wrap;overflow=hidden;rotatable=0;points=[[0,0.5],[1,0.5]];portConstraint=eastwest;dropTarget=0;fontStyle=5;" parent="2e49270ec7c68f3f-30" vertex="1">
          <mxGeometry y="26" width="160" height="30" as="geometry" />
        </mxCell>
        <mxCell id="2e49270ec7c68f3f-32" value="PK" style="shape=partialRectangle;top=0;left=0;bottom=0;html=1;fillColor=none;align=left;verticalAlign=middle;spacingLeft=4;spacingRight=4;whiteSpace=wrap;overflow=hidden;rotatable=0;points=[];portConstraint=eastwest;part=1;" parent="2e49270ec7c68f3f-31" vertex="1" connectable="0">
          <mxGeometry width="30" height="30" as="geometry" />
        </mxCell>
        <mxCell id="2e49270ec7c68f3f-33" value="row 1" style="shape=partialRectangle;top=0;left=0;right=0;bottom=0;html=1;align=left;verticalAlign=top;fillColor=none;spacingLeft=34;spacingRight=4;whiteSpace=wrap;overflow=hidden;rotatable=0;points=[[0,0.5],[1,0.5]];portConstraint=eastwest;dropTarget=0;" parent="2e49270ec7c68f3f-30" vertex="1">
          <mxGeometry y="56" width="160" height="26" as="geometry" />
        </mxCell>
        <mxCell id="2e49270ec7c68f3f-34" value="" style="shape=partialRectangle;top=0;left=0;bottom=0;html=1;fillColor=none;align=left;verticalAlign=top;spacingLeft=4;spacingRight=4;whiteSpace=wrap;overflow=hidden;rotatable=0;points=[];portConstraint=eastwest;part=1;" parent="2e49270ec7c68f3f-33" vertex="1" connectable="0">
          <mxGeometry width="30" height="26" as="geometry" />
        </mxCell>
        <mxCell id="2e49270ec7c68f3f-35" value="row 2" style="shape=partialRectangle;top=0;left=0;right=0;bottom=0;html=1;align=left;verticalAlign=top;fillColor=none;spacingLeft=34;spacingRight=4;whiteSpace=wrap;overflow=hidden;rotatable=0;points=[[0,0.5],[1,0.5]];portConstraint=eastwest;dropTarget=0;" parent="2e49270ec7c68f3f-30" vertex="1">
          <mxGeometry y="82" width="160" height="26" as="geometry" />
        </mxCell>
        <mxCell id="2e49270ec7c68f3f-36" value="" style="shape=partialRectangle;top=0;left=0;bottom=0;html=1;fillColor=none;align=left;verticalAlign=top;spacingLeft=4;spacingRight=4;whiteSpace=wrap;overflow=hidden;rotatable=0;points=[];portConstraint=eastwest;part=1;" parent="2e49270ec7c68f3f-35" vertex="1" connectable="0">
          <mxGeometry width="30" height="26" as="geometry" />
        </mxCell>
        <mxCell id="2e49270ec7c68f3f-37" value="row 3" style="shape=partialRectangle;top=0;left=0;right=0;bottom=0;html=1;align=left;verticalAlign=top;fillColor=none;spacingLeft=34;spacingRight=4;whiteSpace=wrap;overflow=hidden;rotatable=0;points=[[0,0.5],[1,0.5]];portConstraint=eastwest;dropTarget=0;" parent="2e49270ec7c68f3f-30" vertex="1">
          <mxGeometry y="108" width="160" height="26" as="geometry" />
        </mxCell>
        <mxCell id="2e49270ec7c68f3f-38" value="" style="shape=partialRectangle;top=0;left=0;bottom=0;html=1;fillColor=none;align=left;verticalAlign=top;spacingLeft=4;spacingRight=4;whiteSpace=wrap;overflow=hidden;rotatable=0;points=[];portConstraint=eastwest;part=1;" parent="2e49270ec7c68f3f-37" vertex="1" connectable="0">
          <mxGeometry width="30" height="26" as="geometry" />
        </mxCell>
        <mxCell id="2e49270ec7c68f3f-39" value="" style="shape=partialRectangle;top=0;left=0;right=0;bottom=0;html=1;align=left;verticalAlign=top;fillColor=none;spacingLeft=34;spacingRight=4;whiteSpace=wrap;overflow=hidden;rotatable=0;points=[[0,0.5],[1,0.5]];portConstraint=eastwest;dropTarget=0;" parent="2e49270ec7c68f3f-30" vertex="1">
          <mxGeometry y="134" width="160" height="10" as="geometry" />
        </mxCell>
        <mxCell id="2e49270ec7c68f3f-40" value="" style="shape=partialRectangle;top=0;left=0;bottom=0;html=1;fillColor=none;align=left;verticalAlign=top;spacingLeft=4;spacingRight=4;whiteSpace=wrap;overflow=hidden;rotatable=0;points=[];portConstraint=eastwest;part=1;" parent="2e49270ec7c68f3f-39" vertex="1" connectable="0">
          <mxGeometry width="30" height="10" as="geometry" />
        </mxCell>
        <mxCell id="2e49270ec7c68f3f-41" value="Table" style="swimlane;html=1;fontStyle=0;childLayout=stackLayout;horizontal=1;startSize=26;fillColor=#e0e0e0;horizontalStack=0;resizeParent=1;resizeLast=0;collapsible=1;marginBottom=0;swimlaneFillColor=#ffffff;align=center;rounded=0;shadow=0;comic=0;labelBackgroundColor=none;strokeWidth=1;fontFamily=Verdana;fontSize=14" parent="1" vertex="1">
          <mxGeometry x="930" y="715" width="160" height="112" as="geometry" />
        </mxCell>
        <mxCell id="2e49270ec7c68f3f-42" value="row 1" style="shape=partialRectangle;top=0;left=0;right=0;bottom=0;html=1;align=left;verticalAlign=middle;fillColor=none;spacingLeft=60;spacingRight=4;whiteSpace=wrap;overflow=hidden;rotatable=0;points=[[0,0.5],[1,0.5]];portConstraint=eastwest;dropTarget=0;fontStyle=5;" parent="2e49270ec7c68f3f-41" vertex="1">
          <mxGeometry y="26" width="160" height="30" as="geometry" />
        </mxCell>
        <mxCell id="2e49270ec7c68f3f-43" value="PK,FK1" style="shape=partialRectangle;fontStyle=1;top=0;left=0;bottom=0;html=1;fillColor=none;align=left;verticalAlign=middle;spacingLeft=4;spacingRight=4;whiteSpace=wrap;overflow=hidden;rotatable=0;points=[];portConstraint=eastwest;part=1;" parent="2e49270ec7c68f3f-42" vertex="1" connectable="0">
          <mxGeometry width="56" height="30" as="geometry" />
        </mxCell>
        <mxCell id="2e49270ec7c68f3f-44" value="row 2" style="shape=partialRectangle;top=0;left=0;right=0;bottom=1;html=1;align=left;verticalAlign=middle;fillColor=none;spacingLeft=60;spacingRight=4;whiteSpace=wrap;overflow=hidden;rotatable=0;points=[[0,0.5],[1,0.5]];portConstraint=eastwest;dropTarget=0;fontStyle=5;" parent="2e49270ec7c68f3f-41" vertex="1">
          <mxGeometry y="56" width="160" height="30" as="geometry" />
        </mxCell>
        <mxCell id="2e49270ec7c68f3f-45" value="PK,FK2" style="shape=partialRectangle;fontStyle=1;top=0;left=0;bottom=0;html=1;fillColor=none;align=left;verticalAlign=middle;spacingLeft=4;spacingRight=4;whiteSpace=wrap;overflow=hidden;rotatable=0;points=[];portConstraint=eastwest;part=1;" parent="2e49270ec7c68f3f-44" vertex="1" connectable="0">
          <mxGeometry width="56" height="30" as="geometry" />
        </mxCell>
        <mxCell id="2e49270ec7c68f3f-46" value="row 1" style="shape=partialRectangle;top=0;left=0;right=0;bottom=0;html=1;align=left;verticalAlign=top;fillColor=none;spacingLeft=60;spacingRight=4;whiteSpace=wrap;overflow=hidden;rotatable=0;points=[[0,0.5],[1,0.5]];portConstraint=eastwest;dropTarget=0;" parent="2e49270ec7c68f3f-41" vertex="1">
          <mxGeometry y="86" width="160" height="26" as="geometry" />
        </mxCell>
        <mxCell id="2e49270ec7c68f3f-47" value="" style="shape=partialRectangle;top=0;left=0;bottom=0;html=1;fillColor=none;align=left;verticalAlign=top;spacingLeft=4;spacingRight=4;whiteSpace=wrap;overflow=hidden;rotatable=0;points=[];portConstraint=eastwest;part=1;" parent="2e49270ec7c68f3f-46" vertex="1" connectable="0">
          <mxGeometry width="56" height="26" as="geometry" />
        </mxCell>
        <mxCell id="2e49270ec7c68f3f-48" value="Table" style="swimlane;html=1;fontStyle=0;childLayout=stackLayout;horizontal=1;startSize=26;fillColor=#e0e0e0;horizontalStack=0;resizeParent=1;resizeLast=0;collapsible=1;marginBottom=0;swimlaneFillColor=#ffffff;align=center;rounded=0;shadow=0;comic=0;labelBackgroundColor=none;strokeWidth=1;fontFamily=Verdana;fontSize=14" parent="1" vertex="1">
          <mxGeometry x="330" y="1021" width="160" height="112" as="geometry" />
        </mxCell>
        <mxCell id="2e49270ec7c68f3f-49" value="row 1" style="shape=partialRectangle;top=0;left=0;right=0;bottom=0;html=1;align=left;verticalAlign=middle;fillColor=none;spacingLeft=60;spacingRight=4;whiteSpace=wrap;overflow=hidden;rotatable=0;points=[[0,0.5],[1,0.5]];portConstraint=eastwest;dropTarget=0;fontStyle=5;" parent="2e49270ec7c68f3f-48" vertex="1">
          <mxGeometry y="26" width="160" height="30" as="geometry" />
        </mxCell>
        <mxCell id="2e49270ec7c68f3f-50" value="PK,FK1" style="shape=partialRectangle;fontStyle=1;top=0;left=0;bottom=0;html=1;fillColor=none;align=left;verticalAlign=middle;spacingLeft=4;spacingRight=4;whiteSpace=wrap;overflow=hidden;rotatable=0;points=[];portConstraint=eastwest;part=1;" parent="2e49270ec7c68f3f-49" vertex="1" connectable="0">
          <mxGeometry width="56" height="30" as="geometry" />
        </mxCell>
        <mxCell id="2e49270ec7c68f3f-51" value="row 2" style="shape=partialRectangle;top=0;left=0;right=0;bottom=1;html=1;align=left;verticalAlign=middle;fillColor=none;spacingLeft=60;spacingRight=4;whiteSpace=wrap;overflow=hidden;rotatable=0;points=[[0,0.5],[1,0.5]];portConstraint=eastwest;dropTarget=0;fontStyle=5;" parent="2e49270ec7c68f3f-48" vertex="1">
          <mxGeometry y="56" width="160" height="30" as="geometry" />
        </mxCell>
        <mxCell id="2e49270ec7c68f3f-52" value="PK,FK2" style="shape=partialRectangle;fontStyle=1;top=0;left=0;bottom=0;html=1;fillColor=none;align=left;verticalAlign=middle;spacingLeft=4;spacingRight=4;whiteSpace=wrap;overflow=hidden;rotatable=0;points=[];portConstraint=eastwest;part=1;" parent="2e49270ec7c68f3f-51" vertex="1" connectable="0">
          <mxGeometry width="56" height="30" as="geometry" />
        </mxCell>
        <mxCell id="2e49270ec7c68f3f-53" value="row 1" style="shape=partialRectangle;top=0;left=0;right=0;bottom=0;html=1;align=left;verticalAlign=top;fillColor=none;spacingLeft=60;spacingRight=4;whiteSpace=wrap;overflow=hidden;rotatable=0;points=[[0,0.5],[1,0.5]];portConstraint=eastwest;dropTarget=0;" parent="2e49270ec7c68f3f-48" vertex="1">
          <mxGeometry y="86" width="160" height="26" as="geometry" />
        </mxCell>
        <mxCell id="2e49270ec7c68f3f-54" value="" style="shape=partialRectangle;top=0;left=0;bottom=0;html=1;fillColor=none;align=left;verticalAlign=top;spacingLeft=4;spacingRight=4;whiteSpace=wrap;overflow=hidden;rotatable=0;points=[];portConstraint=eastwest;part=1;" parent="2e49270ec7c68f3f-53" vertex="1" connectable="0">
          <mxGeometry width="56" height="26" as="geometry" />
        </mxCell>
        <mxCell id="2e49270ec7c68f3f-56" value="" style="edgeStyle=orthogonalEdgeStyle;html=1;endArrow=ERzeroToMany;endFill=1;startArrow=ERzeroToMany;labelBackgroundColor=none;fontFamily=Verdana;fontSize=14;entryX=0;entryY=0.5;exitX=0;exitY=0.5;" parent="1" source="2e49270ec7c68f3f-49" target="2e49270ec7c68f3f-26" edge="1">
          <mxGeometry width="100" height="100" relative="1" as="geometry">
            <mxPoint x="160" y="1091" as="sourcePoint" />
            <mxPoint x="260" y="991" as="targetPoint" />
            <Array as="points">
              <mxPoint x="290" y="1062" />
              <mxPoint x="290" y="922" />
            </Array>
          </mxGeometry>
        </mxCell>
        <mxCell id="2e49270ec7c68f3f-57" value="" style="edgeStyle=orthogonalEdgeStyle;html=1;endArrow=ERmany;startArrow=ERmany;labelBackgroundColor=none;fontFamily=Verdana;fontSize=14;entryX=1;entryY=0.5;exitX=0;exitY=0.383;exitPerimeter=0;" parent="1" source="2e49270ec7c68f3f-11" target="2e49270ec7c68f3f-2" edge="1">
          <mxGeometry width="100" height="100" relative="1" as="geometry">
            <mxPoint x="560" y="220" as="sourcePoint" />
            <mxPoint x="580" y="310" as="targetPoint" />
            <Array as="points">
              <mxPoint x="600" y="780" />
              <mxPoint x="510" y="780" />
              <mxPoint x="510" y="800" />
              <mxPoint x="490" y="800" />
            </Array>
          </mxGeometry>
        </mxCell>
        <mxCell id="2e49270ec7c68f3f-58" value="" style="edgeStyle=orthogonalEdgeStyle;html=1;endArrow=ERzeroToMany;startArrow=ERmandOne;labelBackgroundColor=none;fontFamily=Verdana;fontSize=14;entryX=0;entryY=0.308;entryPerimeter=0;exitX=0;exitY=0.5;" parent="1" source="2e49270ec7c68f3f-31" target="2e49270ec7c68f3f-15" edge="1">
          <mxGeometry width="100" height="100" relative="1" as="geometry">
            <mxPoint x="510" y="861" as="sourcePoint" />
            <mxPoint x="610" y="761" as="targetPoint" />
            <Array as="points">
              <mxPoint x="580" y="891" />
              <mxPoint x="580" y="711" />
            </Array>
          </mxGeometry>
        </mxCell>
        <mxCell id="2e49270ec7c68f3f-60" value="" style="edgeStyle=entityRelationEdgeStyle;html=1;endArrow=ERzeroToOne;startArrow=ERmandOne;labelBackgroundColor=none;fontFamily=Verdana;fontSize=14;exitX=1;exitY=0.5;entryX=0;entryY=0.5;" parent="1" source="2e49270ec7c68f3f-49" target="2e49270ec7c68f3f-35" edge="1">
          <mxGeometry width="100" height="100" relative="1" as="geometry">
            <mxPoint x="640" y="1161" as="sourcePoint" />
            <mxPoint x="740" y="1061" as="targetPoint" />
          </mxGeometry>
        </mxCell>
        <mxCell id="2e49270ec7c68f3f-63" value="" style="edgeStyle=entityRelationEdgeStyle;html=1;endArrow=ERzeroToMany;startArrow=ERzeroToOne;labelBackgroundColor=none;fontFamily=Verdana;fontSize=14;entryX=0;entryY=0.5;exitX=1;exitY=0.5;" parent="1" source="2e49270ec7c68f3f-31" target="2e49270ec7c68f3f-42" edge="1">
          <mxGeometry width="100" height="100" relative="1" as="geometry">
            <mxPoint x="890" y="1041" as="sourcePoint" />
            <mxPoint x="990" y="941" as="targetPoint" />
          </mxGeometry>
        </mxCell>
        <mxCell id="2e49270ec7c68f3f-64" value="Table" style="swimlane;html=1;fontStyle=0;childLayout=stackLayout;horizontal=1;startSize=26;fillColor=#e0e0e0;horizontalStack=0;resizeParent=1;resizeLast=0;collapsible=1;marginBottom=0;swimlaneFillColor=#ffffff;align=center;rounded=0;shadow=0;comic=0;labelBackgroundColor=none;strokeWidth=1;fontFamily=Verdana;fontSize=14" parent="1" vertex="1">
          <mxGeometry x="930" y="857" width="160" height="112" as="geometry" />
        </mxCell>
        <mxCell id="2e49270ec7c68f3f-65" value="row 1" style="shape=partialRectangle;top=0;left=0;right=0;bottom=0;html=1;align=left;verticalAlign=middle;fillColor=none;spacingLeft=60;spacingRight=4;whiteSpace=wrap;overflow=hidden;rotatable=0;points=[[0,0.5],[1,0.5]];portConstraint=eastwest;dropTarget=0;fontStyle=5;" parent="2e49270ec7c68f3f-64" vertex="1">
          <mxGeometry y="26" width="160" height="30" as="geometry" />
        </mxCell>
        <mxCell id="2e49270ec7c68f3f-66" value="PK,FK1" style="shape=partialRectangle;fontStyle=1;top=0;left=0;bottom=0;html=1;fillColor=none;align=left;verticalAlign=middle;spacingLeft=4;spacingRight=4;whiteSpace=wrap;overflow=hidden;rotatable=0;points=[];portConstraint=eastwest;part=1;" parent="2e49270ec7c68f3f-65" vertex="1" connectable="0">
          <mxGeometry width="56" height="30" as="geometry" />
        </mxCell>
        <mxCell id="2e49270ec7c68f3f-67" value="row 2" style="shape=partialRectangle;top=0;left=0;right=0;bottom=1;html=1;align=left;verticalAlign=middle;fillColor=none;spacingLeft=60;spacingRight=4;whiteSpace=wrap;overflow=hidden;rotatable=0;points=[[0,0.5],[1,0.5]];portConstraint=eastwest;dropTarget=0;fontStyle=5;" parent="2e49270ec7c68f3f-64" vertex="1">
          <mxGeometry y="56" width="160" height="30" as="geometry" />
        </mxCell>
        <mxCell id="2e49270ec7c68f3f-68" value="PK,FK2" style="shape=partialRectangle;fontStyle=1;top=0;left=0;bottom=0;html=1;fillColor=none;align=left;verticalAlign=middle;spacingLeft=4;spacingRight=4;whiteSpace=wrap;overflow=hidden;rotatable=0;points=[];portConstraint=eastwest;part=1;" parent="2e49270ec7c68f3f-67" vertex="1" connectable="0">
          <mxGeometry width="56" height="30" as="geometry" />
        </mxCell>
        <mxCell id="2e49270ec7c68f3f-69" value="row 1" style="shape=partialRectangle;top=0;left=0;right=0;bottom=0;html=1;align=left;verticalAlign=top;fillColor=none;spacingLeft=60;spacingRight=4;whiteSpace=wrap;overflow=hidden;rotatable=0;points=[[0,0.5],[1,0.5]];portConstraint=eastwest;dropTarget=0;" parent="2e49270ec7c68f3f-64" vertex="1">
          <mxGeometry y="86" width="160" height="26" as="geometry" />
        </mxCell>
        <mxCell id="2e49270ec7c68f3f-70" value="" style="shape=partialRectangle;top=0;left=0;bottom=0;html=1;fillColor=none;align=left;verticalAlign=top;spacingLeft=4;spacingRight=4;whiteSpace=wrap;overflow=hidden;rotatable=0;points=[];portConstraint=eastwest;part=1;" parent="2e49270ec7c68f3f-69" vertex="1" connectable="0">
          <mxGeometry width="56" height="26" as="geometry" />
        </mxCell>
        <mxCell id="2e49270ec7c68f3f-71" value="Table" style="swimlane;html=1;fontStyle=0;childLayout=stackLayout;horizontal=1;startSize=26;fillColor=#e0e0e0;horizontalStack=0;resizeParent=1;resizeLast=0;collapsible=1;marginBottom=0;swimlaneFillColor=#ffffff;align=center;rounded=0;shadow=0;comic=0;labelBackgroundColor=none;strokeWidth=1;fontFamily=Verdana;fontSize=14" parent="1" vertex="1">
          <mxGeometry x="930" y="991" width="160" height="112" as="geometry" />
        </mxCell>
        <mxCell id="2e49270ec7c68f3f-72" value="row 1" style="shape=partialRectangle;top=0;left=0;right=0;bottom=0;html=1;align=left;verticalAlign=middle;fillColor=none;spacingLeft=60;spacingRight=4;whiteSpace=wrap;overflow=hidden;rotatable=0;points=[[0,0.5],[1,0.5]];portConstraint=eastwest;dropTarget=0;fontStyle=5;" parent="2e49270ec7c68f3f-71" vertex="1">
          <mxGeometry y="26" width="160" height="30" as="geometry" />
        </mxCell>
        <mxCell id="2e49270ec7c68f3f-73" value="PK,FK1" style="shape=partialRectangle;fontStyle=1;top=0;left=0;bottom=0;html=1;fillColor=none;align=left;verticalAlign=middle;spacingLeft=4;spacingRight=4;whiteSpace=wrap;overflow=hidden;rotatable=0;points=[];portConstraint=eastwest;part=1;" parent="2e49270ec7c68f3f-72" vertex="1" connectable="0">
          <mxGeometry width="56" height="30" as="geometry" />
        </mxCell>
        <mxCell id="2e49270ec7c68f3f-74" value="row 2" style="shape=partialRectangle;top=0;left=0;right=0;bottom=1;html=1;align=left;verticalAlign=middle;fillColor=none;spacingLeft=60;spacingRight=4;whiteSpace=wrap;overflow=hidden;rotatable=0;points=[[0,0.5],[1,0.5]];portConstraint=eastwest;dropTarget=0;fontStyle=5;" parent="2e49270ec7c68f3f-71" vertex="1">
          <mxGeometry y="56" width="160" height="30" as="geometry" />
        </mxCell>
        <mxCell id="2e49270ec7c68f3f-75" value="PK,FK2" style="shape=partialRectangle;fontStyle=1;top=0;left=0;bottom=0;html=1;fillColor=none;align=left;verticalAlign=middle;spacingLeft=4;spacingRight=4;whiteSpace=wrap;overflow=hidden;rotatable=0;points=[];portConstraint=eastwest;part=1;" parent="2e49270ec7c68f3f-74" vertex="1" connectable="0">
          <mxGeometry width="56" height="30" as="geometry" />
        </mxCell>
        <mxCell id="2e49270ec7c68f3f-76" value="row 1" style="shape=partialRectangle;top=0;left=0;right=0;bottom=0;html=1;align=left;verticalAlign=top;fillColor=none;spacingLeft=60;spacingRight=4;whiteSpace=wrap;overflow=hidden;rotatable=0;points=[[0,0.5],[1,0.5]];portConstraint=eastwest;dropTarget=0;" parent="2e49270ec7c68f3f-71" vertex="1">
          <mxGeometry y="86" width="160" height="26" as="geometry" />
        </mxCell>
        <mxCell id="2e49270ec7c68f3f-77" value="" style="shape=partialRectangle;top=0;left=0;bottom=0;html=1;fillColor=none;align=left;verticalAlign=top;spacingLeft=4;spacingRight=4;whiteSpace=wrap;overflow=hidden;rotatable=0;points=[];portConstraint=eastwest;part=1;" parent="2e49270ec7c68f3f-76" vertex="1" connectable="0">
          <mxGeometry width="56" height="26" as="geometry" />
        </mxCell>
        <mxCell id="2e49270ec7c68f3f-78" value="" style="edgeStyle=entityRelationEdgeStyle;html=1;endArrow=ERzeroToMany;startArrow=ERzeroToOne;labelBackgroundColor=none;fontFamily=Verdana;fontSize=14;entryX=0;entryY=0.5;exitX=1;exitY=0.5;" parent="1" source="2e49270ec7c68f3f-33" target="2e49270ec7c68f3f-65" edge="1">
          <mxGeometry width="100" height="100" relative="1" as="geometry">
            <mxPoint x="789.7647058823532" y="900.5294117647059" as="sourcePoint" />
            <mxPoint x="940.3529411764707" y="766.4117647058824" as="targetPoint" />
          </mxGeometry>
        </mxCell>
        <mxCell id="2e49270ec7c68f3f-79" value="" style="edgeStyle=entityRelationEdgeStyle;html=1;endArrow=ERzeroToMany;startArrow=ERzeroToOne;labelBackgroundColor=none;fontFamily=Verdana;fontSize=14;entryX=0;entryY=0.5;exitX=1;exitY=0.5;" parent="1" source="2e49270ec7c68f3f-37" target="2e49270ec7c68f3f-74" edge="1">
          <mxGeometry width="100" height="100" relative="1" as="geometry">
            <mxPoint x="799.7647058823532" y="910.5294117647059" as="sourcePoint" />
            <mxPoint x="950.3529411764707" y="776.4117647058824" as="targetPoint" />
          </mxGeometry>
        </mxCell>
        <mxCell id="2e49270ec7c68f3f-80" value="Table" style="swimlane;html=1;fontStyle=0;childLayout=stackLayout;horizontal=1;startSize=26;fillColor=#e0e0e0;horizontalStack=0;resizeParent=1;resizeLast=0;collapsible=1;marginBottom=0;swimlaneFillColor=#ffffff;align=center;rounded=0;shadow=0;comic=0;labelBackgroundColor=none;strokeWidth=1;fontFamily=Verdana;fontSize=14" parent="1" vertex="1">
          <mxGeometry x="70" y="799" width="160" height="144" as="geometry" />
        </mxCell>
        <mxCell id="2e49270ec7c68f3f-81" value="uniqueId" style="shape=partialRectangle;top=0;left=0;right=0;bottom=1;html=1;align=left;verticalAlign=middle;fillColor=none;spacingLeft=34;spacingRight=4;whiteSpace=wrap;overflow=hidden;rotatable=0;points=[[0,0.5],[1,0.5]];portConstraint=eastwest;dropTarget=0;fontStyle=5;" parent="2e49270ec7c68f3f-80" vertex="1">
          <mxGeometry y="26" width="160" height="30" as="geometry" />
        </mxCell>
        <mxCell id="2e49270ec7c68f3f-82" value="PK" style="shape=partialRectangle;top=0;left=0;bottom=0;html=1;fillColor=none;align=left;verticalAlign=middle;spacingLeft=4;spacingRight=4;whiteSpace=wrap;overflow=hidden;rotatable=0;points=[];portConstraint=eastwest;part=1;" parent="2e49270ec7c68f3f-81" vertex="1" connectable="0">
          <mxGeometry width="30" height="30" as="geometry" />
        </mxCell>
        <mxCell id="2e49270ec7c68f3f-83" value="row 1" style="shape=partialRectangle;top=0;left=0;right=0;bottom=0;html=1;align=left;verticalAlign=top;fillColor=none;spacingLeft=34;spacingRight=4;whiteSpace=wrap;overflow=hidden;rotatable=0;points=[[0,0.5],[1,0.5]];portConstraint=eastwest;dropTarget=0;" parent="2e49270ec7c68f3f-80" vertex="1">
          <mxGeometry y="56" width="160" height="26" as="geometry" />
        </mxCell>
        <mxCell id="2e49270ec7c68f3f-84" value="" style="shape=partialRectangle;top=0;left=0;bottom=0;html=1;fillColor=none;align=left;verticalAlign=top;spacingLeft=4;spacingRight=4;whiteSpace=wrap;overflow=hidden;rotatable=0;points=[];portConstraint=eastwest;part=1;" parent="2e49270ec7c68f3f-83" vertex="1" connectable="0">
          <mxGeometry width="30" height="26" as="geometry" />
        </mxCell>
        <mxCell id="2e49270ec7c68f3f-85" value="row 2" style="shape=partialRectangle;top=0;left=0;right=0;bottom=0;html=1;align=left;verticalAlign=top;fillColor=none;spacingLeft=34;spacingRight=4;whiteSpace=wrap;overflow=hidden;rotatable=0;points=[[0,0.5],[1,0.5]];portConstraint=eastwest;dropTarget=0;" parent="2e49270ec7c68f3f-80" vertex="1">
          <mxGeometry y="82" width="160" height="26" as="geometry" />
        </mxCell>
        <mxCell id="2e49270ec7c68f3f-86" value="" style="shape=partialRectangle;top=0;left=0;bottom=0;html=1;fillColor=none;align=left;verticalAlign=top;spacingLeft=4;spacingRight=4;whiteSpace=wrap;overflow=hidden;rotatable=0;points=[];portConstraint=eastwest;part=1;" parent="2e49270ec7c68f3f-85" vertex="1" connectable="0">
          <mxGeometry width="30" height="26" as="geometry" />
        </mxCell>
        <mxCell id="2e49270ec7c68f3f-87" value="row 3" style="shape=partialRectangle;top=0;left=0;right=0;bottom=0;html=1;align=left;verticalAlign=top;fillColor=none;spacingLeft=34;spacingRight=4;whiteSpace=wrap;overflow=hidden;rotatable=0;points=[[0,0.5],[1,0.5]];portConstraint=eastwest;dropTarget=0;" parent="2e49270ec7c68f3f-80" vertex="1">
          <mxGeometry y="108" width="160" height="26" as="geometry" />
        </mxCell>
        <mxCell id="2e49270ec7c68f3f-88" value="" style="shape=partialRectangle;top=0;left=0;bottom=0;html=1;fillColor=none;align=left;verticalAlign=top;spacingLeft=4;spacingRight=4;whiteSpace=wrap;overflow=hidden;rotatable=0;points=[];portConstraint=eastwest;part=1;" parent="2e49270ec7c68f3f-87" vertex="1" connectable="0">
          <mxGeometry width="30" height="26" as="geometry" />
        </mxCell>
        <mxCell id="2e49270ec7c68f3f-89" value="" style="shape=partialRectangle;top=0;left=0;right=0;bottom=0;html=1;align=left;verticalAlign=top;fillColor=none;spacingLeft=34;spacingRight=4;whiteSpace=wrap;overflow=hidden;rotatable=0;points=[[0,0.5],[1,0.5]];portConstraint=eastwest;dropTarget=0;" parent="2e49270ec7c68f3f-80" vertex="1">
          <mxGeometry y="134" width="160" height="10" as="geometry" />
        </mxCell>
        <mxCell id="2e49270ec7c68f3f-90" value="" style="shape=partialRectangle;top=0;left=0;bottom=0;html=1;fillColor=none;align=left;verticalAlign=top;spacingLeft=4;spacingRight=4;whiteSpace=wrap;overflow=hidden;rotatable=0;points=[];portConstraint=eastwest;part=1;" parent="2e49270ec7c68f3f-89" vertex="1" connectable="0">
          <mxGeometry width="30" height="10" as="geometry" />
        </mxCell>
        <mxCell id="2e49270ec7c68f3f-91" value="" style="edgeStyle=orthogonalEdgeStyle;html=1;endArrow=ERzeroToOne;endFill=1;labelBackgroundColor=none;fontFamily=Verdana;fontSize=14;entryX=0;entryY=0.5;exitX=1;exitY=0.5;" parent="1" source="2e49270ec7c68f3f-81" target="2e49270ec7c68f3f-2" edge="1">
          <mxGeometry width="100" height="100" relative="1" as="geometry">
            <mxPoint x="70" y="300" as="sourcePoint" />
            <mxPoint x="170" y="200" as="targetPoint" />
            <Array as="points">
              <mxPoint x="230" y="760" />
              <mxPoint x="80" y="760" />
              <mxPoint x="80" y="976" />
            </Array>
          </mxGeometry>
        </mxCell>
        <mxCell id="2e49270ec7c68f3f-92" value="" style="edgeStyle=orthogonalEdgeStyle;html=1;endArrow=ERzeroToOne;endFill=1;labelBackgroundColor=none;fontFamily=Verdana;fontSize=14;entryX=0;entryY=0.5;exitX=1;exitY=0.5;" parent="1" source="2e49270ec7c68f3f-87" target="2e49270ec7c68f3f-53" edge="1">
          <mxGeometry width="100" height="100" relative="1" as="geometry">
            <mxPoint x="240.35294117647072" y="849.9411764705883" as="sourcePoint" />
            <mxPoint x="340.3529411764707" y="632.2941176470589" as="targetPoint" />
            <Array as="points">
              <mxPoint x="260" y="920" />
              <mxPoint x="260" y="1120" />
            </Array>
          </mxGeometry>
        </mxCell>
        <mxCell id="oJz1TeRl5AYfLEUsqwZG-1" value="Категория" style="swimlane;html=1;fontStyle=0;childLayout=stackLayout;horizontal=1;startSize=26;fillColor=#e0e0e0;horizontalStack=0;resizeParent=1;resizeLast=0;collapsible=1;marginBottom=0;swimlaneFillColor=#ffffff;align=center;rounded=0;shadow=0;comic=0;labelBackgroundColor=none;strokeWidth=1;fontFamily=Verdana;fontSize=14;swimlaneLine=1;" vertex="1" parent="1">
          <mxGeometry x="100" y="-450" width="160" height="82" as="geometry" />
        </mxCell>
        <mxCell id="oJz1TeRl5AYfLEUsqwZG-2" value="uniqueId" style="shape=partialRectangle;top=0;left=0;right=0;bottom=1;html=1;align=left;verticalAlign=middle;fillColor=none;spacingLeft=34;spacingRight=4;whiteSpace=wrap;overflow=hidden;rotatable=0;points=[[0,0.5],[1,0.5]];portConstraint=eastwest;dropTarget=0;fontStyle=5;" vertex="1" parent="oJz1TeRl5AYfLEUsqwZG-1">
          <mxGeometry y="26" width="160" height="30" as="geometry" />
        </mxCell>
        <mxCell id="oJz1TeRl5AYfLEUsqwZG-3" value="PK" style="shape=partialRectangle;top=0;left=0;bottom=0;html=1;fillColor=none;align=left;verticalAlign=middle;spacingLeft=4;spacingRight=4;whiteSpace=wrap;overflow=hidden;rotatable=0;points=[];portConstraint=eastwest;part=1;" vertex="1" connectable="0" parent="oJz1TeRl5AYfLEUsqwZG-2">
          <mxGeometry width="30" height="30" as="geometry" />
        </mxCell>
        <mxCell id="oJz1TeRl5AYfLEUsqwZG-4" value="название категории" style="shape=partialRectangle;top=0;left=0;right=0;bottom=0;html=1;align=left;verticalAlign=top;fillColor=none;spacingLeft=34;spacingRight=4;whiteSpace=wrap;overflow=hidden;rotatable=0;points=[[0,0.5],[1,0.5]];portConstraint=eastwest;dropTarget=0;" vertex="1" parent="oJz1TeRl5AYfLEUsqwZG-1">
          <mxGeometry y="56" width="160" height="26" as="geometry" />
        </mxCell>
        <mxCell id="oJz1TeRl5AYfLEUsqwZG-5" value="" style="shape=partialRectangle;top=0;left=0;bottom=0;html=1;fillColor=none;align=left;verticalAlign=top;spacingLeft=4;spacingRight=4;whiteSpace=wrap;overflow=hidden;rotatable=0;points=[];portConstraint=eastwest;part=1;" vertex="1" connectable="0" parent="oJz1TeRl5AYfLEUsqwZG-4">
          <mxGeometry width="30" height="26" as="geometry" />
        </mxCell>
        <mxCell id="oJz1TeRl5AYfLEUsqwZG-13" value="Вопрос" style="swimlane;html=1;fontStyle=0;childLayout=stackLayout;horizontal=1;startSize=26;fillColor=#e0e0e0;horizontalStack=0;resizeParent=1;resizeLast=0;collapsible=1;marginBottom=0;swimlaneFillColor=#ffffff;align=center;rounded=0;shadow=0;comic=0;labelBackgroundColor=none;strokeWidth=1;fontFamily=Verdana;fontSize=14" vertex="1" parent="1">
          <mxGeometry x="330" y="-450" width="250" height="320" as="geometry" />
        </mxCell>
        <mxCell id="oJz1TeRl5AYfLEUsqwZG-14" value="uniqueId" style="shape=partialRectangle;top=0;left=0;right=0;bottom=1;html=1;align=left;verticalAlign=middle;fillColor=none;spacingLeft=34;spacingRight=4;whiteSpace=wrap;overflow=hidden;rotatable=0;points=[[0,0.5],[1,0.5]];portConstraint=eastwest;dropTarget=0;fontStyle=5;" vertex="1" parent="oJz1TeRl5AYfLEUsqwZG-13">
          <mxGeometry y="26" width="250" height="30" as="geometry" />
        </mxCell>
        <mxCell id="oJz1TeRl5AYfLEUsqwZG-15" value="PK" style="shape=partialRectangle;top=0;left=0;bottom=0;html=1;fillColor=none;align=left;verticalAlign=middle;spacingLeft=4;spacingRight=4;whiteSpace=wrap;overflow=hidden;rotatable=0;points=[];portConstraint=eastwest;part=1;" vertex="1" connectable="0" parent="oJz1TeRl5AYfLEUsqwZG-14">
          <mxGeometry width="30" height="30" as="geometry" />
        </mxCell>
        <mxCell id="oJz1TeRl5AYfLEUsqwZG-16" value="id категорий к которым он относится (список)" style="shape=partialRectangle;top=0;left=0;right=0;bottom=0;html=1;align=left;verticalAlign=top;fillColor=none;spacingLeft=34;spacingRight=4;whiteSpace=wrap;overflow=hidden;rotatable=0;points=[[0,0.5],[1,0.5]];portConstraint=eastwest;dropTarget=0;" vertex="1" parent="oJz1TeRl5AYfLEUsqwZG-13">
          <mxGeometry y="56" width="250" height="44" as="geometry" />
        </mxCell>
        <mxCell id="oJz1TeRl5AYfLEUsqwZG-17" value="" style="shape=partialRectangle;top=0;left=0;bottom=0;html=1;fillColor=none;align=left;verticalAlign=top;spacingLeft=4;spacingRight=4;whiteSpace=wrap;overflow=hidden;rotatable=0;points=[];portConstraint=eastwest;part=1;" vertex="1" connectable="0" parent="oJz1TeRl5AYfLEUsqwZG-16">
          <mxGeometry width="30" height="44" as="geometry" />
        </mxCell>
        <mxCell id="oJz1TeRl5AYfLEUsqwZG-18" value="текст вопроса (текст)" style="shape=partialRectangle;top=0;left=0;right=0;bottom=0;html=1;align=left;verticalAlign=top;fillColor=none;spacingLeft=34;spacingRight=4;whiteSpace=wrap;overflow=hidden;rotatable=0;points=[[0,0.5],[1,0.5]];portConstraint=eastwest;dropTarget=0;" vertex="1" parent="oJz1TeRl5AYfLEUsqwZG-13">
          <mxGeometry y="100" width="250" height="26" as="geometry" />
        </mxCell>
        <mxCell id="oJz1TeRl5AYfLEUsqwZG-19" value="" style="shape=partialRectangle;top=0;left=0;bottom=0;html=1;fillColor=none;align=left;verticalAlign=top;spacingLeft=4;spacingRight=4;whiteSpace=wrap;overflow=hidden;rotatable=0;points=[];portConstraint=eastwest;part=1;" vertex="1" connectable="0" parent="oJz1TeRl5AYfLEUsqwZG-18">
          <mxGeometry width="30" height="26" as="geometry" />
        </mxCell>
        <mxCell id="oJz1TeRl5AYfLEUsqwZG-20" value="ответ на вопрос (текст)" style="shape=partialRectangle;top=0;left=0;right=0;bottom=0;html=1;align=left;verticalAlign=top;fillColor=none;spacingLeft=34;spacingRight=4;whiteSpace=wrap;overflow=hidden;rotatable=0;points=[[0,0.5],[1,0.5]];portConstraint=eastwest;dropTarget=0;" vertex="1" parent="oJz1TeRl5AYfLEUsqwZG-13">
          <mxGeometry y="126" width="250" height="26" as="geometry" />
        </mxCell>
        <mxCell id="oJz1TeRl5AYfLEUsqwZG-21" value="" style="shape=partialRectangle;top=0;left=0;bottom=0;html=1;fillColor=none;align=left;verticalAlign=top;spacingLeft=4;spacingRight=4;whiteSpace=wrap;overflow=hidden;rotatable=0;points=[];portConstraint=eastwest;part=1;" vertex="1" connectable="0" parent="oJz1TeRl5AYfLEUsqwZG-20">
          <mxGeometry width="30" height="26" as="geometry" />
        </mxCell>
        <mxCell id="oJz1TeRl5AYfLEUsqwZG-41" value="тип вопроса" style="shape=partialRectangle;top=0;left=0;right=0;bottom=0;html=1;align=left;verticalAlign=top;fillColor=none;spacingLeft=34;spacingRight=4;whiteSpace=wrap;overflow=hidden;rotatable=0;points=[[0,0.5],[1,0.5]];portConstraint=eastwest;dropTarget=0;" vertex="1" parent="oJz1TeRl5AYfLEUsqwZG-13">
          <mxGeometry y="152" width="250" height="26" as="geometry" />
        </mxCell>
        <mxCell id="oJz1TeRl5AYfLEUsqwZG-42" value="" style="shape=partialRectangle;top=0;left=0;bottom=0;html=1;fillColor=none;align=left;verticalAlign=top;spacingLeft=4;spacingRight=4;whiteSpace=wrap;overflow=hidden;rotatable=0;points=[];portConstraint=eastwest;part=1;" vertex="1" connectable="0" parent="oJz1TeRl5AYfLEUsqwZG-41">
          <mxGeometry width="30" height="26" as="geometry" />
        </mxCell>
        <mxCell id="oJz1TeRl5AYfLEUsqwZG-275" value="тег сложности" style="shape=partialRectangle;top=0;left=0;right=0;bottom=0;html=1;align=left;verticalAlign=top;fillColor=none;spacingLeft=34;spacingRight=4;whiteSpace=wrap;overflow=hidden;rotatable=0;points=[[0,0.5],[1,0.5]];portConstraint=eastwest;dropTarget=0;" vertex="1" parent="oJz1TeRl5AYfLEUsqwZG-13">
          <mxGeometry y="178" width="250" height="26" as="geometry" />
        </mxCell>
        <mxCell id="oJz1TeRl5AYfLEUsqwZG-276" value="" style="shape=partialRectangle;top=0;left=0;bottom=0;html=1;fillColor=none;align=left;verticalAlign=top;spacingLeft=4;spacingRight=4;whiteSpace=wrap;overflow=hidden;rotatable=0;points=[];portConstraint=eastwest;part=1;" vertex="1" connectable="0" parent="oJz1TeRl5AYfLEUsqwZG-275">
          <mxGeometry width="30" height="26" as="geometry" />
        </mxCell>
        <mxCell id="oJz1TeRl5AYfLEUsqwZG-278" value="изображение (не обязательно)" style="shape=partialRectangle;top=0;left=0;right=0;bottom=0;html=1;align=left;verticalAlign=top;fillColor=none;spacingLeft=34;spacingRight=4;whiteSpace=wrap;overflow=hidden;rotatable=0;points=[[0,0.5],[1,0.5]];portConstraint=eastwest;dropTarget=0;" vertex="1" parent="oJz1TeRl5AYfLEUsqwZG-13">
          <mxGeometry y="204" width="250" height="26" as="geometry" />
        </mxCell>
        <mxCell id="oJz1TeRl5AYfLEUsqwZG-279" value="" style="shape=partialRectangle;top=0;left=0;bottom=0;html=1;fillColor=none;align=left;verticalAlign=top;spacingLeft=4;spacingRight=4;whiteSpace=wrap;overflow=hidden;rotatable=0;points=[];portConstraint=eastwest;part=1;" vertex="1" connectable="0" parent="oJz1TeRl5AYfLEUsqwZG-278">
          <mxGeometry width="30" height="26" as="geometry" />
        </mxCell>
        <mxCell id="oJz1TeRl5AYfLEUsqwZG-280" value="текст для копирования в редактор кода (или ссылка на шаблон)" style="shape=partialRectangle;top=0;left=0;right=0;bottom=0;html=1;align=left;verticalAlign=top;fillColor=none;spacingLeft=34;spacingRight=4;whiteSpace=wrap;overflow=hidden;rotatable=0;points=[[0,0.5],[1,0.5]];portConstraint=eastwest;dropTarget=0;" vertex="1" parent="oJz1TeRl5AYfLEUsqwZG-13">
          <mxGeometry y="230" width="250" height="50" as="geometry" />
        </mxCell>
        <mxCell id="oJz1TeRl5AYfLEUsqwZG-281" value="" style="shape=partialRectangle;top=0;left=0;bottom=0;html=1;fillColor=none;align=left;verticalAlign=top;spacingLeft=4;spacingRight=4;whiteSpace=wrap;overflow=hidden;rotatable=0;points=[];portConstraint=eastwest;part=1;" vertex="1" connectable="0" parent="oJz1TeRl5AYfLEUsqwZG-280">
          <mxGeometry width="30" height="50" as="geometry" />
        </mxCell>
        <mxCell id="oJz1TeRl5AYfLEUsqwZG-308" value="тип ответа (какого типа шаблон для ответа формировать)" style="shape=partialRectangle;top=0;left=0;right=0;bottom=0;html=1;align=left;verticalAlign=top;fillColor=none;spacingLeft=34;spacingRight=4;whiteSpace=wrap;overflow=hidden;rotatable=0;points=[[0,0.5],[1,0.5]];portConstraint=eastwest;dropTarget=0;" vertex="1" parent="oJz1TeRl5AYfLEUsqwZG-13">
          <mxGeometry y="280" width="250" height="40" as="geometry" />
        </mxCell>
        <mxCell id="oJz1TeRl5AYfLEUsqwZG-309" value="" style="shape=partialRectangle;top=0;left=0;bottom=0;html=1;fillColor=none;align=left;verticalAlign=top;spacingLeft=4;spacingRight=4;whiteSpace=wrap;overflow=hidden;rotatable=0;points=[];portConstraint=eastwest;part=1;" vertex="1" connectable="0" parent="oJz1TeRl5AYfLEUsqwZG-308">
          <mxGeometry width="30" height="40" as="geometry" />
        </mxCell>
        <mxCell id="oJz1TeRl5AYfLEUsqwZG-27" value="" style="edgeStyle=entityRelationEdgeStyle;fontSize=12;html=1;endArrow=ERmany;startArrow=ERmany;rounded=0;entryX=1;entryY=0.5;entryDx=0;entryDy=0;exitX=0;exitY=0.5;exitDx=0;exitDy=0;" edge="1" parent="1" source="oJz1TeRl5AYfLEUsqwZG-16" target="oJz1TeRl5AYfLEUsqwZG-4">
          <mxGeometry width="100" height="100" relative="1" as="geometry">
            <mxPoint x="500" y="230" as="sourcePoint" />
            <mxPoint x="600" y="130" as="targetPoint" />
          </mxGeometry>
        </mxCell>
        <mxCell id="oJz1TeRl5AYfLEUsqwZG-43" value="Тип вопроса" style="swimlane;html=1;fontStyle=0;childLayout=stackLayout;horizontal=1;startSize=26;fillColor=#e0e0e0;horizontalStack=0;resizeParent=1;resizeLast=0;collapsible=1;marginBottom=0;swimlaneFillColor=#ffffff;align=center;rounded=0;shadow=0;comic=0;labelBackgroundColor=none;strokeWidth=1;fontFamily=Verdana;fontSize=14;swimlaneLine=1;" vertex="1" parent="1">
          <mxGeometry x="640" y="-450" width="200" height="82" as="geometry" />
        </mxCell>
        <mxCell id="oJz1TeRl5AYfLEUsqwZG-44" value="uniqueId" style="shape=partialRectangle;top=0;left=0;right=0;bottom=1;html=1;align=left;verticalAlign=middle;fillColor=none;spacingLeft=34;spacingRight=4;whiteSpace=wrap;overflow=hidden;rotatable=0;points=[[0,0.5],[1,0.5]];portConstraint=eastwest;dropTarget=0;fontStyle=5;" vertex="1" parent="oJz1TeRl5AYfLEUsqwZG-43">
          <mxGeometry y="26" width="200" height="30" as="geometry" />
        </mxCell>
        <mxCell id="oJz1TeRl5AYfLEUsqwZG-45" value="PK" style="shape=partialRectangle;top=0;left=0;bottom=0;html=1;fillColor=none;align=left;verticalAlign=middle;spacingLeft=4;spacingRight=4;whiteSpace=wrap;overflow=hidden;rotatable=0;points=[];portConstraint=eastwest;part=1;" vertex="1" connectable="0" parent="oJz1TeRl5AYfLEUsqwZG-44">
          <mxGeometry width="30" height="30" as="geometry" />
        </mxCell>
        <mxCell id="oJz1TeRl5AYfLEUsqwZG-46" value="название типа вопроса" style="shape=partialRectangle;top=0;left=0;right=0;bottom=0;html=1;align=left;verticalAlign=top;fillColor=none;spacingLeft=34;spacingRight=4;whiteSpace=wrap;overflow=hidden;rotatable=0;points=[[0,0.5],[1,0.5]];portConstraint=eastwest;dropTarget=0;" vertex="1" parent="oJz1TeRl5AYfLEUsqwZG-43">
          <mxGeometry y="56" width="200" height="26" as="geometry" />
        </mxCell>
        <mxCell id="oJz1TeRl5AYfLEUsqwZG-47" value="" style="shape=partialRectangle;top=0;left=0;bottom=0;html=1;fillColor=none;align=left;verticalAlign=top;spacingLeft=4;spacingRight=4;whiteSpace=wrap;overflow=hidden;rotatable=0;points=[];portConstraint=eastwest;part=1;" vertex="1" connectable="0" parent="oJz1TeRl5AYfLEUsqwZG-46">
          <mxGeometry width="30" height="26" as="geometry" />
        </mxCell>
        <mxCell id="oJz1TeRl5AYfLEUsqwZG-49" value="" style="edgeStyle=entityRelationEdgeStyle;fontSize=12;html=1;endArrow=ERmany;rounded=0;entryX=1;entryY=0.5;entryDx=0;entryDy=0;exitX=0;exitY=0.5;exitDx=0;exitDy=0;" edge="1" parent="1" source="oJz1TeRl5AYfLEUsqwZG-46" target="oJz1TeRl5AYfLEUsqwZG-41">
          <mxGeometry width="100" height="100" relative="1" as="geometry">
            <mxPoint x="500" y="230" as="sourcePoint" />
            <mxPoint x="600" y="130" as="targetPoint" />
          </mxGeometry>
        </mxCell>
        <mxCell id="oJz1TeRl5AYfLEUsqwZG-114" value="Направление" style="swimlane;html=1;fontStyle=0;childLayout=stackLayout;horizontal=1;startSize=26;fillColor=#e0e0e0;horizontalStack=0;resizeParent=1;resizeLast=0;collapsible=1;marginBottom=0;swimlaneFillColor=#ffffff;align=center;rounded=0;shadow=0;comic=0;labelBackgroundColor=none;strokeWidth=1;fontFamily=Verdana;fontSize=14" vertex="1" parent="1">
          <mxGeometry x="-140" y="-450" width="180" height="110" as="geometry" />
        </mxCell>
        <mxCell id="oJz1TeRl5AYfLEUsqwZG-115" value="uniqueId" style="shape=partialRectangle;top=0;left=0;right=0;bottom=1;html=1;align=left;verticalAlign=middle;fillColor=none;spacingLeft=34;spacingRight=4;whiteSpace=wrap;overflow=hidden;rotatable=0;points=[[0,0.5],[1,0.5]];portConstraint=eastwest;dropTarget=0;fontStyle=5;" vertex="1" parent="oJz1TeRl5AYfLEUsqwZG-114">
          <mxGeometry y="26" width="180" height="30" as="geometry" />
        </mxCell>
        <mxCell id="oJz1TeRl5AYfLEUsqwZG-116" value="PK" style="shape=partialRectangle;top=0;left=0;bottom=0;html=1;fillColor=none;align=left;verticalAlign=middle;spacingLeft=4;spacingRight=4;whiteSpace=wrap;overflow=hidden;rotatable=0;points=[];portConstraint=eastwest;part=1;" vertex="1" connectable="0" parent="oJz1TeRl5AYfLEUsqwZG-115">
          <mxGeometry width="30" height="30" as="geometry" />
        </mxCell>
        <mxCell id="oJz1TeRl5AYfLEUsqwZG-117" value="название направления" style="shape=partialRectangle;top=0;left=0;right=0;bottom=0;html=1;align=left;verticalAlign=top;fillColor=none;spacingLeft=34;spacingRight=4;whiteSpace=wrap;overflow=hidden;rotatable=0;points=[[0,0.5],[1,0.5]];portConstraint=eastwest;dropTarget=0;" vertex="1" parent="oJz1TeRl5AYfLEUsqwZG-114">
          <mxGeometry y="56" width="180" height="26" as="geometry" />
        </mxCell>
        <mxCell id="oJz1TeRl5AYfLEUsqwZG-118" value="" style="shape=partialRectangle;top=0;left=0;bottom=0;html=1;fillColor=none;align=left;verticalAlign=top;spacingLeft=4;spacingRight=4;whiteSpace=wrap;overflow=hidden;rotatable=0;points=[];portConstraint=eastwest;part=1;" vertex="1" connectable="0" parent="oJz1TeRl5AYfLEUsqwZG-117">
          <mxGeometry width="30" height="26" as="geometry" />
        </mxCell>
        <mxCell id="oJz1TeRl5AYfLEUsqwZG-119" value="доступные категории" style="shape=partialRectangle;top=0;left=0;right=0;bottom=0;html=1;align=left;verticalAlign=top;fillColor=none;spacingLeft=34;spacingRight=4;whiteSpace=wrap;overflow=hidden;rotatable=0;points=[[0,0.5],[1,0.5]];portConstraint=eastwest;dropTarget=0;" vertex="1" parent="oJz1TeRl5AYfLEUsqwZG-114">
          <mxGeometry y="82" width="180" height="26" as="geometry" />
        </mxCell>
        <mxCell id="oJz1TeRl5AYfLEUsqwZG-120" value="" style="shape=partialRectangle;top=0;left=0;bottom=0;html=1;fillColor=none;align=left;verticalAlign=top;spacingLeft=4;spacingRight=4;whiteSpace=wrap;overflow=hidden;rotatable=0;points=[];portConstraint=eastwest;part=1;" vertex="1" connectable="0" parent="oJz1TeRl5AYfLEUsqwZG-119">
          <mxGeometry width="30" height="26" as="geometry" />
        </mxCell>
        <mxCell id="oJz1TeRl5AYfLEUsqwZG-125" value="" style="edgeStyle=entityRelationEdgeStyle;fontSize=12;html=1;endArrow=ERmany;startArrow=ERmany;rounded=0;entryX=0;entryY=0.5;entryDx=0;entryDy=0;exitX=1;exitY=0.5;exitDx=0;exitDy=0;" edge="1" parent="1" source="oJz1TeRl5AYfLEUsqwZG-119" target="oJz1TeRl5AYfLEUsqwZG-4">
          <mxGeometry width="100" height="100" relative="1" as="geometry">
            <mxPoint x="370" y="-330" as="sourcePoint" />
            <mxPoint x="470" y="-430" as="targetPoint" />
          </mxGeometry>
        </mxCell>
        <mxCell id="oJz1TeRl5AYfLEUsqwZG-141" value="" style="group" vertex="1" connectable="0" parent="1">
          <mxGeometry x="370" y="-1290" width="150" height="450" as="geometry" />
        </mxCell>
        <mxCell id="oJz1TeRl5AYfLEUsqwZG-69" value="" style="rounded=0;whiteSpace=wrap;html=1;" vertex="1" parent="oJz1TeRl5AYfLEUsqwZG-141">
          <mxGeometry width="150" height="450" as="geometry" />
        </mxCell>
        <mxCell id="oJz1TeRl5AYfLEUsqwZG-73" value="Категории" style="rounded=0;whiteSpace=wrap;html=1;" vertex="1" parent="oJz1TeRl5AYfLEUsqwZG-141">
          <mxGeometry width="150" height="30" as="geometry" />
        </mxCell>
        <mxCell id="oJz1TeRl5AYfLEUsqwZG-74" value="" style="group" vertex="1" connectable="0" parent="oJz1TeRl5AYfLEUsqwZG-141">
          <mxGeometry y="30" width="150" height="30" as="geometry" />
        </mxCell>
        <mxCell id="oJz1TeRl5AYfLEUsqwZG-70" value="id" style="rounded=0;whiteSpace=wrap;html=1;" vertex="1" parent="oJz1TeRl5AYfLEUsqwZG-74">
          <mxGeometry width="20" height="30" as="geometry" />
        </mxCell>
        <mxCell id="oJz1TeRl5AYfLEUsqwZG-71" value="name" style="rounded=0;whiteSpace=wrap;html=1;" vertex="1" parent="oJz1TeRl5AYfLEUsqwZG-74">
          <mxGeometry x="20" width="130" height="30" as="geometry" />
        </mxCell>
        <mxCell id="oJz1TeRl5AYfLEUsqwZG-79" value="" style="group" vertex="1" connectable="0" parent="oJz1TeRl5AYfLEUsqwZG-141">
          <mxGeometry y="60" width="150" height="30" as="geometry" />
        </mxCell>
        <mxCell id="oJz1TeRl5AYfLEUsqwZG-76" value="1" style="rounded=0;whiteSpace=wrap;html=1;" vertex="1" parent="oJz1TeRl5AYfLEUsqwZG-79">
          <mxGeometry width="20" height="30" as="geometry" />
        </mxCell>
        <mxCell id="oJz1TeRl5AYfLEUsqwZG-77" value="HTML" style="rounded=0;whiteSpace=wrap;html=1;" vertex="1" parent="oJz1TeRl5AYfLEUsqwZG-79">
          <mxGeometry x="20" width="130" height="30" as="geometry" />
        </mxCell>
        <mxCell id="oJz1TeRl5AYfLEUsqwZG-81" value="" style="group" vertex="1" connectable="0" parent="oJz1TeRl5AYfLEUsqwZG-141">
          <mxGeometry y="90" width="150" height="30" as="geometry" />
        </mxCell>
        <mxCell id="oJz1TeRl5AYfLEUsqwZG-82" value="2" style="rounded=0;whiteSpace=wrap;html=1;" vertex="1" parent="oJz1TeRl5AYfLEUsqwZG-81">
          <mxGeometry width="20" height="30" as="geometry" />
        </mxCell>
        <mxCell id="oJz1TeRl5AYfLEUsqwZG-83" value="CSS" style="rounded=0;whiteSpace=wrap;html=1;" vertex="1" parent="oJz1TeRl5AYfLEUsqwZG-81">
          <mxGeometry x="20" width="130" height="30" as="geometry" />
        </mxCell>
        <mxCell id="oJz1TeRl5AYfLEUsqwZG-84" value="" style="group" vertex="1" connectable="0" parent="oJz1TeRl5AYfLEUsqwZG-141">
          <mxGeometry y="120" width="150" height="30" as="geometry" />
        </mxCell>
        <mxCell id="oJz1TeRl5AYfLEUsqwZG-85" value="3" style="rounded=0;whiteSpace=wrap;html=1;" vertex="1" parent="oJz1TeRl5AYfLEUsqwZG-84">
          <mxGeometry width="20" height="30" as="geometry" />
        </mxCell>
        <mxCell id="oJz1TeRl5AYfLEUsqwZG-86" value="JS" style="rounded=0;whiteSpace=wrap;html=1;" vertex="1" parent="oJz1TeRl5AYfLEUsqwZG-84">
          <mxGeometry x="20" width="130" height="30" as="geometry" />
        </mxCell>
        <mxCell id="oJz1TeRl5AYfLEUsqwZG-87" value="" style="group" vertex="1" connectable="0" parent="oJz1TeRl5AYfLEUsqwZG-141">
          <mxGeometry y="150" width="150" height="30" as="geometry" />
        </mxCell>
        <mxCell id="oJz1TeRl5AYfLEUsqwZG-88" value="4" style="rounded=0;whiteSpace=wrap;html=1;" vertex="1" parent="oJz1TeRl5AYfLEUsqwZG-87">
          <mxGeometry width="20" height="30" as="geometry" />
        </mxCell>
        <mxCell id="oJz1TeRl5AYfLEUsqwZG-89" value="TS" style="rounded=0;whiteSpace=wrap;html=1;" vertex="1" parent="oJz1TeRl5AYfLEUsqwZG-87">
          <mxGeometry x="20" width="130" height="30" as="geometry" />
        </mxCell>
        <mxCell id="oJz1TeRl5AYfLEUsqwZG-90" value="" style="group" vertex="1" connectable="0" parent="oJz1TeRl5AYfLEUsqwZG-141">
          <mxGeometry y="180" width="150" height="30" as="geometry" />
        </mxCell>
        <mxCell id="oJz1TeRl5AYfLEUsqwZG-91" value="5" style="rounded=0;whiteSpace=wrap;html=1;" vertex="1" parent="oJz1TeRl5AYfLEUsqwZG-90">
          <mxGeometry width="20" height="30" as="geometry" />
        </mxCell>
        <mxCell id="oJz1TeRl5AYfLEUsqwZG-92" value="RxJs" style="rounded=0;whiteSpace=wrap;html=1;" vertex="1" parent="oJz1TeRl5AYfLEUsqwZG-90">
          <mxGeometry x="20" width="130" height="30" as="geometry" />
        </mxCell>
        <mxCell id="oJz1TeRl5AYfLEUsqwZG-93" value="" style="group" vertex="1" connectable="0" parent="oJz1TeRl5AYfLEUsqwZG-141">
          <mxGeometry y="210" width="150" height="30" as="geometry" />
        </mxCell>
        <mxCell id="oJz1TeRl5AYfLEUsqwZG-94" value="6" style="rounded=0;whiteSpace=wrap;html=1;" vertex="1" parent="oJz1TeRl5AYfLEUsqwZG-93">
          <mxGeometry width="20" height="30" as="geometry" />
        </mxCell>
        <mxCell id="oJz1TeRl5AYfLEUsqwZG-95" value="React" style="rounded=0;whiteSpace=wrap;html=1;" vertex="1" parent="oJz1TeRl5AYfLEUsqwZG-93">
          <mxGeometry x="20" width="130" height="30" as="geometry" />
        </mxCell>
        <mxCell id="oJz1TeRl5AYfLEUsqwZG-96" value="" style="group" vertex="1" connectable="0" parent="oJz1TeRl5AYfLEUsqwZG-141">
          <mxGeometry y="240" width="150" height="30" as="geometry" />
        </mxCell>
        <mxCell id="oJz1TeRl5AYfLEUsqwZG-97" value="7" style="rounded=0;whiteSpace=wrap;html=1;" vertex="1" parent="oJz1TeRl5AYfLEUsqwZG-96">
          <mxGeometry width="20" height="30" as="geometry" />
        </mxCell>
        <mxCell id="oJz1TeRl5AYfLEUsqwZG-98" value="Angular" style="rounded=0;whiteSpace=wrap;html=1;" vertex="1" parent="oJz1TeRl5AYfLEUsqwZG-96">
          <mxGeometry x="20" width="130" height="30" as="geometry" />
        </mxCell>
        <mxCell id="oJz1TeRl5AYfLEUsqwZG-99" value="" style="group" vertex="1" connectable="0" parent="oJz1TeRl5AYfLEUsqwZG-141">
          <mxGeometry y="270" width="150" height="30" as="geometry" />
        </mxCell>
        <mxCell id="oJz1TeRl5AYfLEUsqwZG-100" value="8" style="rounded=0;whiteSpace=wrap;html=1;" vertex="1" parent="oJz1TeRl5AYfLEUsqwZG-99">
          <mxGeometry width="20" height="30" as="geometry" />
        </mxCell>
        <mxCell id="oJz1TeRl5AYfLEUsqwZG-101" value="Vue.js" style="rounded=0;whiteSpace=wrap;html=1;" vertex="1" parent="oJz1TeRl5AYfLEUsqwZG-99">
          <mxGeometry x="20" width="130" height="30" as="geometry" />
        </mxCell>
        <mxCell id="oJz1TeRl5AYfLEUsqwZG-103" value="" style="group" vertex="1" connectable="0" parent="oJz1TeRl5AYfLEUsqwZG-141">
          <mxGeometry y="300" width="150" height="30" as="geometry" />
        </mxCell>
        <mxCell id="oJz1TeRl5AYfLEUsqwZG-104" value="9" style="rounded=0;whiteSpace=wrap;html=1;" vertex="1" parent="oJz1TeRl5AYfLEUsqwZG-103">
          <mxGeometry width="20" height="30" as="geometry" />
        </mxCell>
        <mxCell id="oJz1TeRl5AYfLEUsqwZG-105" value="React Native" style="rounded=0;whiteSpace=wrap;html=1;" vertex="1" parent="oJz1TeRl5AYfLEUsqwZG-103">
          <mxGeometry x="20" width="130" height="30" as="geometry" />
        </mxCell>
        <mxCell id="oJz1TeRl5AYfLEUsqwZG-106" value="" style="group" vertex="1" connectable="0" parent="oJz1TeRl5AYfLEUsqwZG-141">
          <mxGeometry y="330" width="150" height="30" as="geometry" />
        </mxCell>
        <mxCell id="oJz1TeRl5AYfLEUsqwZG-107" value="10" style="rounded=0;whiteSpace=wrap;html=1;" vertex="1" parent="oJz1TeRl5AYfLEUsqwZG-106">
          <mxGeometry width="20" height="30" as="geometry" />
        </mxCell>
        <mxCell id="oJz1TeRl5AYfLEUsqwZG-108" value="Node.js" style="rounded=0;whiteSpace=wrap;html=1;" vertex="1" parent="oJz1TeRl5AYfLEUsqwZG-106">
          <mxGeometry x="20" width="130" height="30" as="geometry" />
        </mxCell>
        <mxCell id="oJz1TeRl5AYfLEUsqwZG-126" value="" style="group" vertex="1" connectable="0" parent="oJz1TeRl5AYfLEUsqwZG-141">
          <mxGeometry y="360" width="150" height="30" as="geometry" />
        </mxCell>
        <mxCell id="oJz1TeRl5AYfLEUsqwZG-127" value="11" style="rounded=0;whiteSpace=wrap;html=1;" vertex="1" parent="oJz1TeRl5AYfLEUsqwZG-126">
          <mxGeometry width="20" height="30" as="geometry" />
        </mxCell>
        <mxCell id="oJz1TeRl5AYfLEUsqwZG-128" value="Базы Данных" style="rounded=0;whiteSpace=wrap;html=1;" vertex="1" parent="oJz1TeRl5AYfLEUsqwZG-126">
          <mxGeometry x="20" width="130" height="30" as="geometry" />
        </mxCell>
        <mxCell id="oJz1TeRl5AYfLEUsqwZG-132" value="" style="group" vertex="1" connectable="0" parent="oJz1TeRl5AYfLEUsqwZG-141">
          <mxGeometry y="390" width="150" height="30" as="geometry" />
        </mxCell>
        <mxCell id="oJz1TeRl5AYfLEUsqwZG-133" value="12" style="rounded=0;whiteSpace=wrap;html=1;" vertex="1" parent="oJz1TeRl5AYfLEUsqwZG-132">
          <mxGeometry width="20" height="30" as="geometry" />
        </mxCell>
        <mxCell id="oJz1TeRl5AYfLEUsqwZG-134" value="SEO" style="rounded=0;whiteSpace=wrap;html=1;" vertex="1" parent="oJz1TeRl5AYfLEUsqwZG-132">
          <mxGeometry x="20" width="130" height="30" as="geometry" />
        </mxCell>
        <mxCell id="oJz1TeRl5AYfLEUsqwZG-135" value="" style="group" vertex="1" connectable="0" parent="oJz1TeRl5AYfLEUsqwZG-141">
          <mxGeometry y="420" width="150" height="30" as="geometry" />
        </mxCell>
        <mxCell id="oJz1TeRl5AYfLEUsqwZG-136" value="13" style="rounded=0;whiteSpace=wrap;html=1;" vertex="1" parent="oJz1TeRl5AYfLEUsqwZG-135">
          <mxGeometry width="20" height="30" as="geometry" />
        </mxCell>
        <mxCell id="oJz1TeRl5AYfLEUsqwZG-137" value="SSR" style="rounded=0;whiteSpace=wrap;html=1;" vertex="1" parent="oJz1TeRl5AYfLEUsqwZG-135">
          <mxGeometry x="20" width="130" height="30" as="geometry" />
        </mxCell>
        <mxCell id="oJz1TeRl5AYfLEUsqwZG-204" value="" style="group" vertex="1" connectable="0" parent="1">
          <mxGeometry x="560" y="-1290" width="270" height="150" as="geometry" />
        </mxCell>
        <mxCell id="oJz1TeRl5AYfLEUsqwZG-144" value="" style="rounded=0;whiteSpace=wrap;html=1;" vertex="1" parent="oJz1TeRl5AYfLEUsqwZG-204">
          <mxGeometry width="270" height="150" as="geometry" />
        </mxCell>
        <mxCell id="oJz1TeRl5AYfLEUsqwZG-145" value="Направления" style="rounded=0;whiteSpace=wrap;html=1;" vertex="1" parent="oJz1TeRl5AYfLEUsqwZG-204">
          <mxGeometry width="270" height="30" as="geometry" />
        </mxCell>
        <mxCell id="oJz1TeRl5AYfLEUsqwZG-191" value="" style="group" vertex="1" connectable="0" parent="oJz1TeRl5AYfLEUsqwZG-204">
          <mxGeometry y="30" width="270" height="30" as="geometry" />
        </mxCell>
        <mxCell id="oJz1TeRl5AYfLEUsqwZG-190" value="id доступных категорий" style="rounded=0;whiteSpace=wrap;html=1;" vertex="1" parent="oJz1TeRl5AYfLEUsqwZG-191">
          <mxGeometry x="110" width="160" height="30" as="geometry" />
        </mxCell>
        <mxCell id="oJz1TeRl5AYfLEUsqwZG-147" value="id" style="rounded=0;whiteSpace=wrap;html=1;" vertex="1" parent="oJz1TeRl5AYfLEUsqwZG-191">
          <mxGeometry width="20" height="30" as="geometry" />
        </mxCell>
        <mxCell id="oJz1TeRl5AYfLEUsqwZG-148" value="name" style="rounded=0;whiteSpace=wrap;html=1;" vertex="1" parent="oJz1TeRl5AYfLEUsqwZG-191">
          <mxGeometry x="20" width="90" height="30" as="geometry" />
        </mxCell>
        <mxCell id="oJz1TeRl5AYfLEUsqwZG-192" value="" style="group" vertex="1" connectable="0" parent="oJz1TeRl5AYfLEUsqwZG-204">
          <mxGeometry y="60" width="270" height="30" as="geometry" />
        </mxCell>
        <mxCell id="oJz1TeRl5AYfLEUsqwZG-193" value="1,2,3,4,5,6,7,8,9,10,11,12,13" style="rounded=0;whiteSpace=wrap;html=1;" vertex="1" parent="oJz1TeRl5AYfLEUsqwZG-192">
          <mxGeometry x="110" width="160" height="30" as="geometry" />
        </mxCell>
        <mxCell id="oJz1TeRl5AYfLEUsqwZG-194" value="1" style="rounded=0;whiteSpace=wrap;html=1;" vertex="1" parent="oJz1TeRl5AYfLEUsqwZG-192">
          <mxGeometry width="20" height="30" as="geometry" />
        </mxCell>
        <mxCell id="oJz1TeRl5AYfLEUsqwZG-195" value="Frontend" style="rounded=0;whiteSpace=wrap;html=1;" vertex="1" parent="oJz1TeRl5AYfLEUsqwZG-192">
          <mxGeometry x="20" width="90" height="30" as="geometry" />
        </mxCell>
        <mxCell id="oJz1TeRl5AYfLEUsqwZG-196" value="" style="group" vertex="1" connectable="0" parent="oJz1TeRl5AYfLEUsqwZG-204">
          <mxGeometry y="90" width="270" height="30" as="geometry" />
        </mxCell>
        <mxCell id="oJz1TeRl5AYfLEUsqwZG-197" value="1,2,3..." style="rounded=0;whiteSpace=wrap;html=1;" vertex="1" parent="oJz1TeRl5AYfLEUsqwZG-196">
          <mxGeometry x="110" width="160" height="30" as="geometry" />
        </mxCell>
        <mxCell id="oJz1TeRl5AYfLEUsqwZG-198" value="2" style="rounded=0;whiteSpace=wrap;html=1;" vertex="1" parent="oJz1TeRl5AYfLEUsqwZG-196">
          <mxGeometry width="20" height="30" as="geometry" />
        </mxCell>
        <mxCell id="oJz1TeRl5AYfLEUsqwZG-199" value="Web" style="rounded=0;whiteSpace=wrap;html=1;" vertex="1" parent="oJz1TeRl5AYfLEUsqwZG-196">
          <mxGeometry x="20" width="90" height="30" as="geometry" />
        </mxCell>
        <mxCell id="oJz1TeRl5AYfLEUsqwZG-200" value="" style="group" vertex="1" connectable="0" parent="oJz1TeRl5AYfLEUsqwZG-204">
          <mxGeometry y="120" width="270" height="30" as="geometry" />
        </mxCell>
        <mxCell id="oJz1TeRl5AYfLEUsqwZG-201" value="..." style="rounded=0;whiteSpace=wrap;html=1;" vertex="1" parent="oJz1TeRl5AYfLEUsqwZG-200">
          <mxGeometry x="110" width="160" height="30" as="geometry" />
        </mxCell>
        <mxCell id="oJz1TeRl5AYfLEUsqwZG-202" value="3" style="rounded=0;whiteSpace=wrap;html=1;" vertex="1" parent="oJz1TeRl5AYfLEUsqwZG-200">
          <mxGeometry width="20" height="30" as="geometry" />
        </mxCell>
        <mxCell id="oJz1TeRl5AYfLEUsqwZG-203" value="..." style="rounded=0;whiteSpace=wrap;html=1;" vertex="1" parent="oJz1TeRl5AYfLEUsqwZG-200">
          <mxGeometry x="20" width="90" height="30" as="geometry" />
        </mxCell>
        <mxCell id="oJz1TeRl5AYfLEUsqwZG-250" value="" style="group" vertex="1" connectable="0" parent="1">
          <mxGeometry x="180" y="-1290" width="150" height="180" as="geometry" />
        </mxCell>
        <mxCell id="oJz1TeRl5AYfLEUsqwZG-206" value="" style="rounded=0;whiteSpace=wrap;html=1;" vertex="1" parent="oJz1TeRl5AYfLEUsqwZG-250">
          <mxGeometry width="150" height="180" as="geometry" />
        </mxCell>
        <mxCell id="oJz1TeRl5AYfLEUsqwZG-207" value="Тип вопроса" style="rounded=0;whiteSpace=wrap;html=1;" vertex="1" parent="oJz1TeRl5AYfLEUsqwZG-250">
          <mxGeometry width="150" height="30" as="geometry" />
        </mxCell>
        <mxCell id="oJz1TeRl5AYfLEUsqwZG-208" value="" style="group" vertex="1" connectable="0" parent="oJz1TeRl5AYfLEUsqwZG-250">
          <mxGeometry y="30" width="150" height="30" as="geometry" />
        </mxCell>
        <mxCell id="oJz1TeRl5AYfLEUsqwZG-209" value="id" style="rounded=0;whiteSpace=wrap;html=1;" vertex="1" parent="oJz1TeRl5AYfLEUsqwZG-208">
          <mxGeometry width="20" height="30" as="geometry" />
        </mxCell>
        <mxCell id="oJz1TeRl5AYfLEUsqwZG-210" value="name" style="rounded=0;whiteSpace=wrap;html=1;" vertex="1" parent="oJz1TeRl5AYfLEUsqwZG-208">
          <mxGeometry x="20" width="130" height="30" as="geometry" />
        </mxCell>
        <mxCell id="oJz1TeRl5AYfLEUsqwZG-211" value="" style="group" vertex="1" connectable="0" parent="oJz1TeRl5AYfLEUsqwZG-250">
          <mxGeometry y="60" width="150" height="30" as="geometry" />
        </mxCell>
        <mxCell id="oJz1TeRl5AYfLEUsqwZG-212" value="1" style="rounded=0;whiteSpace=wrap;html=1;" vertex="1" parent="oJz1TeRl5AYfLEUsqwZG-211">
          <mxGeometry width="20" height="30" as="geometry" />
        </mxCell>
        <mxCell id="oJz1TeRl5AYfLEUsqwZG-213" value="теоретический вопрос" style="rounded=0;whiteSpace=wrap;html=1;" vertex="1" parent="oJz1TeRl5AYfLEUsqwZG-211">
          <mxGeometry x="20" width="130" height="30" as="geometry" />
        </mxCell>
        <mxCell id="oJz1TeRl5AYfLEUsqwZG-214" value="" style="group" vertex="1" connectable="0" parent="oJz1TeRl5AYfLEUsqwZG-250">
          <mxGeometry y="90" width="150" height="30" as="geometry" />
        </mxCell>
        <mxCell id="oJz1TeRl5AYfLEUsqwZG-215" value="2" style="rounded=0;whiteSpace=wrap;html=1;" vertex="1" parent="oJz1TeRl5AYfLEUsqwZG-214">
          <mxGeometry width="20" height="30" as="geometry" />
        </mxCell>
        <mxCell id="oJz1TeRl5AYfLEUsqwZG-216" value="практический вопрос" style="rounded=0;whiteSpace=wrap;html=1;" vertex="1" parent="oJz1TeRl5AYfLEUsqwZG-214">
          <mxGeometry x="20" width="130" height="30" as="geometry" />
        </mxCell>
        <mxCell id="oJz1TeRl5AYfLEUsqwZG-217" value="" style="group" vertex="1" connectable="0" parent="oJz1TeRl5AYfLEUsqwZG-250">
          <mxGeometry y="120" width="150" height="30" as="geometry" />
        </mxCell>
        <mxCell id="oJz1TeRl5AYfLEUsqwZG-218" value="3" style="rounded=0;whiteSpace=wrap;html=1;" vertex="1" parent="oJz1TeRl5AYfLEUsqwZG-217">
          <mxGeometry width="20" height="30" as="geometry" />
        </mxCell>
        <mxCell id="oJz1TeRl5AYfLEUsqwZG-219" value="архитектурный вопрос" style="rounded=0;whiteSpace=wrap;html=1;" vertex="1" parent="oJz1TeRl5AYfLEUsqwZG-217">
          <mxGeometry x="20" width="130" height="30" as="geometry" />
        </mxCell>
        <mxCell id="oJz1TeRl5AYfLEUsqwZG-220" value="" style="group" vertex="1" connectable="0" parent="oJz1TeRl5AYfLEUsqwZG-250">
          <mxGeometry y="150" width="150" height="30" as="geometry" />
        </mxCell>
        <mxCell id="oJz1TeRl5AYfLEUsqwZG-221" value="4" style="rounded=0;whiteSpace=wrap;html=1;" vertex="1" parent="oJz1TeRl5AYfLEUsqwZG-220">
          <mxGeometry width="20" height="30" as="geometry" />
        </mxCell>
        <mxCell id="oJz1TeRl5AYfLEUsqwZG-222" value="вопрос на опыт" style="rounded=0;whiteSpace=wrap;html=1;" vertex="1" parent="oJz1TeRl5AYfLEUsqwZG-220">
          <mxGeometry x="20" width="130" height="30" as="geometry" />
        </mxCell>
        <mxCell id="oJz1TeRl5AYfLEUsqwZG-251" value="Категория (тег) сложности" style="swimlane;html=1;fontStyle=0;childLayout=stackLayout;horizontal=1;startSize=26;fillColor=#e0e0e0;horizontalStack=0;resizeParent=1;resizeLast=0;collapsible=1;marginBottom=0;swimlaneFillColor=#ffffff;align=center;rounded=0;shadow=0;comic=0;labelBackgroundColor=none;strokeWidth=1;fontFamily=Verdana;fontSize=14;swimlaneLine=1;" vertex="1" parent="1">
          <mxGeometry x="640" y="-328" width="160" height="82" as="geometry" />
        </mxCell>
        <mxCell id="oJz1TeRl5AYfLEUsqwZG-252" value="uniqueId" style="shape=partialRectangle;top=0;left=0;right=0;bottom=1;html=1;align=left;verticalAlign=middle;fillColor=none;spacingLeft=34;spacingRight=4;whiteSpace=wrap;overflow=hidden;rotatable=0;points=[[0,0.5],[1,0.5]];portConstraint=eastwest;dropTarget=0;fontStyle=5;" vertex="1" parent="oJz1TeRl5AYfLEUsqwZG-251">
          <mxGeometry y="26" width="160" height="30" as="geometry" />
        </mxCell>
        <mxCell id="oJz1TeRl5AYfLEUsqwZG-253" value="PK" style="shape=partialRectangle;top=0;left=0;bottom=0;html=1;fillColor=none;align=left;verticalAlign=middle;spacingLeft=4;spacingRight=4;whiteSpace=wrap;overflow=hidden;rotatable=0;points=[];portConstraint=eastwest;part=1;" vertex="1" connectable="0" parent="oJz1TeRl5AYfLEUsqwZG-252">
          <mxGeometry width="30" height="30" as="geometry" />
        </mxCell>
        <mxCell id="oJz1TeRl5AYfLEUsqwZG-254" value="название категории" style="shape=partialRectangle;top=0;left=0;right=0;bottom=0;html=1;align=left;verticalAlign=top;fillColor=none;spacingLeft=34;spacingRight=4;whiteSpace=wrap;overflow=hidden;rotatable=0;points=[[0,0.5],[1,0.5]];portConstraint=eastwest;dropTarget=0;" vertex="1" parent="oJz1TeRl5AYfLEUsqwZG-251">
          <mxGeometry y="56" width="160" height="26" as="geometry" />
        </mxCell>
        <mxCell id="oJz1TeRl5AYfLEUsqwZG-255" value="" style="shape=partialRectangle;top=0;left=0;bottom=0;html=1;fillColor=none;align=left;verticalAlign=top;spacingLeft=4;spacingRight=4;whiteSpace=wrap;overflow=hidden;rotatable=0;points=[];portConstraint=eastwest;part=1;" vertex="1" connectable="0" parent="oJz1TeRl5AYfLEUsqwZG-254">
          <mxGeometry width="30" height="26" as="geometry" />
        </mxCell>
        <mxCell id="oJz1TeRl5AYfLEUsqwZG-274" value="" style="group" vertex="1" connectable="0" parent="1">
          <mxGeometry x="10" y="-1290" width="150" height="150" as="geometry" />
        </mxCell>
        <mxCell id="oJz1TeRl5AYfLEUsqwZG-257" value="" style="rounded=0;whiteSpace=wrap;html=1;" vertex="1" parent="oJz1TeRl5AYfLEUsqwZG-274">
          <mxGeometry width="150" height="150" as="geometry" />
        </mxCell>
        <mxCell id="oJz1TeRl5AYfLEUsqwZG-258" value="Категория сложности (тег сложности)" style="rounded=0;whiteSpace=wrap;html=1;" vertex="1" parent="oJz1TeRl5AYfLEUsqwZG-274">
          <mxGeometry width="150" height="30" as="geometry" />
        </mxCell>
        <mxCell id="oJz1TeRl5AYfLEUsqwZG-259" value="" style="group" vertex="1" connectable="0" parent="oJz1TeRl5AYfLEUsqwZG-274">
          <mxGeometry y="30" width="150" height="30" as="geometry" />
        </mxCell>
        <mxCell id="oJz1TeRl5AYfLEUsqwZG-260" value="id" style="rounded=0;whiteSpace=wrap;html=1;" vertex="1" parent="oJz1TeRl5AYfLEUsqwZG-259">
          <mxGeometry width="20" height="30" as="geometry" />
        </mxCell>
        <mxCell id="oJz1TeRl5AYfLEUsqwZG-261" value="name" style="rounded=0;whiteSpace=wrap;html=1;" vertex="1" parent="oJz1TeRl5AYfLEUsqwZG-259">
          <mxGeometry x="20" width="130" height="30" as="geometry" />
        </mxCell>
        <mxCell id="oJz1TeRl5AYfLEUsqwZG-262" value="" style="group" vertex="1" connectable="0" parent="oJz1TeRl5AYfLEUsqwZG-274">
          <mxGeometry y="60" width="150" height="30" as="geometry" />
        </mxCell>
        <mxCell id="oJz1TeRl5AYfLEUsqwZG-263" value="1" style="rounded=0;whiteSpace=wrap;html=1;" vertex="1" parent="oJz1TeRl5AYfLEUsqwZG-262">
          <mxGeometry width="20" height="30" as="geometry" />
        </mxCell>
        <mxCell id="oJz1TeRl5AYfLEUsqwZG-264" value="june" style="rounded=0;whiteSpace=wrap;html=1;" vertex="1" parent="oJz1TeRl5AYfLEUsqwZG-262">
          <mxGeometry x="20" width="130" height="30" as="geometry" />
        </mxCell>
        <mxCell id="oJz1TeRl5AYfLEUsqwZG-265" value="" style="group" vertex="1" connectable="0" parent="oJz1TeRl5AYfLEUsqwZG-274">
          <mxGeometry y="90" width="150" height="30" as="geometry" />
        </mxCell>
        <mxCell id="oJz1TeRl5AYfLEUsqwZG-266" value="2" style="rounded=0;whiteSpace=wrap;html=1;" vertex="1" parent="oJz1TeRl5AYfLEUsqwZG-265">
          <mxGeometry width="20" height="30" as="geometry" />
        </mxCell>
        <mxCell id="oJz1TeRl5AYfLEUsqwZG-267" value="middle" style="rounded=0;whiteSpace=wrap;html=1;" vertex="1" parent="oJz1TeRl5AYfLEUsqwZG-265">
          <mxGeometry x="20" width="130" height="30" as="geometry" />
        </mxCell>
        <mxCell id="oJz1TeRl5AYfLEUsqwZG-268" value="" style="group" vertex="1" connectable="0" parent="oJz1TeRl5AYfLEUsqwZG-274">
          <mxGeometry y="120" width="150" height="30" as="geometry" />
        </mxCell>
        <mxCell id="oJz1TeRl5AYfLEUsqwZG-269" value="3" style="rounded=0;whiteSpace=wrap;html=1;" vertex="1" parent="oJz1TeRl5AYfLEUsqwZG-268">
          <mxGeometry width="20" height="30" as="geometry" />
        </mxCell>
        <mxCell id="oJz1TeRl5AYfLEUsqwZG-270" value="senior" style="rounded=0;whiteSpace=wrap;html=1;" vertex="1" parent="oJz1TeRl5AYfLEUsqwZG-268">
          <mxGeometry x="20" width="130" height="30" as="geometry" />
        </mxCell>
        <mxCell id="oJz1TeRl5AYfLEUsqwZG-277" value="" style="edgeStyle=entityRelationEdgeStyle;fontSize=12;html=1;endArrow=ERmany;startArrow=ERmany;rounded=0;entryX=0;entryY=0.5;entryDx=0;entryDy=0;exitX=1;exitY=0.5;exitDx=0;exitDy=0;" edge="1" parent="1" source="oJz1TeRl5AYfLEUsqwZG-275" target="oJz1TeRl5AYfLEUsqwZG-254">
          <mxGeometry width="100" height="100" relative="1" as="geometry">
            <mxPoint x="600" y="-400" as="sourcePoint" />
            <mxPoint x="700" y="-500" as="targetPoint" />
          </mxGeometry>
        </mxCell>
        <mxCell id="oJz1TeRl5AYfLEUsqwZG-284" value="Ответ" style="swimlane;html=1;fontStyle=0;childLayout=stackLayout;horizontal=1;startSize=26;fillColor=#e0e0e0;horizontalStack=0;resizeParent=1;resizeLast=0;collapsible=1;marginBottom=0;swimlaneFillColor=#ffffff;align=center;rounded=0;shadow=0;comic=0;labelBackgroundColor=none;strokeWidth=1;fontFamily=Verdana;fontSize=14" vertex="1" parent="1">
          <mxGeometry x="-100" y="-160" width="250" height="280" as="geometry" />
        </mxCell>
        <mxCell id="oJz1TeRl5AYfLEUsqwZG-285" value="uniqueId" style="shape=partialRectangle;top=0;left=0;right=0;bottom=1;html=1;align=left;verticalAlign=middle;fillColor=none;spacingLeft=34;spacingRight=4;whiteSpace=wrap;overflow=hidden;rotatable=0;points=[[0,0.5],[1,0.5]];portConstraint=eastwest;dropTarget=0;fontStyle=5;" vertex="1" parent="oJz1TeRl5AYfLEUsqwZG-284">
          <mxGeometry y="26" width="250" height="30" as="geometry" />
        </mxCell>
        <mxCell id="oJz1TeRl5AYfLEUsqwZG-286" value="PK" style="shape=partialRectangle;top=0;left=0;bottom=0;html=1;fillColor=none;align=left;verticalAlign=middle;spacingLeft=4;spacingRight=4;whiteSpace=wrap;overflow=hidden;rotatable=0;points=[];portConstraint=eastwest;part=1;" vertex="1" connectable="0" parent="oJz1TeRl5AYfLEUsqwZG-285">
          <mxGeometry width="30" height="30" as="geometry" />
        </mxCell>
        <mxCell id="oJz1TeRl5AYfLEUsqwZG-287" value="id вопроса к которому он привязан" style="shape=partialRectangle;top=0;left=0;right=0;bottom=0;html=1;align=left;verticalAlign=top;fillColor=none;spacingLeft=34;spacingRight=4;whiteSpace=wrap;overflow=hidden;rotatable=0;points=[[0,0.5],[1,0.5]];portConstraint=eastwest;dropTarget=0;" vertex="1" parent="oJz1TeRl5AYfLEUsqwZG-284">
          <mxGeometry y="56" width="250" height="24" as="geometry" />
        </mxCell>
        <mxCell id="oJz1TeRl5AYfLEUsqwZG-288" value="" style="shape=partialRectangle;top=0;left=0;bottom=0;html=1;fillColor=none;align=left;verticalAlign=top;spacingLeft=4;spacingRight=4;whiteSpace=wrap;overflow=hidden;rotatable=0;points=[];portConstraint=eastwest;part=1;" vertex="1" connectable="0" parent="oJz1TeRl5AYfLEUsqwZG-287">
          <mxGeometry width="30" height="24" as="geometry" />
        </mxCell>
        <mxCell id="oJz1TeRl5AYfLEUsqwZG-289" value="id собеседования, отчёта, в котором он находится" style="shape=partialRectangle;top=0;left=0;right=0;bottom=0;html=1;align=left;verticalAlign=top;fillColor=none;spacingLeft=34;spacingRight=4;whiteSpace=wrap;overflow=hidden;rotatable=0;points=[[0,0.5],[1,0.5]];portConstraint=eastwest;dropTarget=0;" vertex="1" parent="oJz1TeRl5AYfLEUsqwZG-284">
          <mxGeometry y="80" width="250" height="40" as="geometry" />
        </mxCell>
        <mxCell id="oJz1TeRl5AYfLEUsqwZG-290" value="" style="shape=partialRectangle;top=0;left=0;bottom=0;html=1;fillColor=none;align=left;verticalAlign=top;spacingLeft=4;spacingRight=4;whiteSpace=wrap;overflow=hidden;rotatable=0;points=[];portConstraint=eastwest;part=1;" vertex="1" connectable="0" parent="oJz1TeRl5AYfLEUsqwZG-289">
          <mxGeometry width="30" height="40" as="geometry" />
        </mxCell>
        <mxCell id="oJz1TeRl5AYfLEUsqwZG-291" value="" style="shape=partialRectangle;top=0;left=0;right=0;bottom=0;html=1;align=left;verticalAlign=top;fillColor=none;spacingLeft=34;spacingRight=4;whiteSpace=wrap;overflow=hidden;rotatable=0;points=[[0,0.5],[1,0.5]];portConstraint=eastwest;dropTarget=0;" vertex="1" parent="oJz1TeRl5AYfLEUsqwZG-284">
          <mxGeometry y="120" width="250" height="26" as="geometry" />
        </mxCell>
        <mxCell id="oJz1TeRl5AYfLEUsqwZG-292" value="" style="shape=partialRectangle;top=0;left=0;bottom=0;html=1;fillColor=none;align=left;verticalAlign=top;spacingLeft=4;spacingRight=4;whiteSpace=wrap;overflow=hidden;rotatable=0;points=[];portConstraint=eastwest;part=1;" vertex="1" connectable="0" parent="oJz1TeRl5AYfLEUsqwZG-291">
          <mxGeometry width="30" height="26" as="geometry" />
        </mxCell>
        <mxCell id="oJz1TeRl5AYfLEUsqwZG-306" value="id вопроса к которому привязан" style="shape=partialRectangle;top=0;left=0;right=0;bottom=0;html=1;align=left;verticalAlign=top;fillColor=none;spacingLeft=34;spacingRight=4;whiteSpace=wrap;overflow=hidden;rotatable=0;points=[[0,0.5],[1,0.5]];portConstraint=eastwest;dropTarget=0;" vertex="1" parent="oJz1TeRl5AYfLEUsqwZG-284">
          <mxGeometry y="146" width="250" height="26" as="geometry" />
        </mxCell>
        <mxCell id="oJz1TeRl5AYfLEUsqwZG-307" value="" style="shape=partialRectangle;top=0;left=0;bottom=0;html=1;fillColor=none;align=left;verticalAlign=top;spacingLeft=4;spacingRight=4;whiteSpace=wrap;overflow=hidden;rotatable=0;points=[];portConstraint=eastwest;part=1;" vertex="1" connectable="0" parent="oJz1TeRl5AYfLEUsqwZG-306">
          <mxGeometry width="30" height="26" as="geometry" />
        </mxCell>
        <mxCell id="oJz1TeRl5AYfLEUsqwZG-301" value="Тип ответа" style="swimlane;html=1;fontStyle=0;childLayout=stackLayout;horizontal=1;startSize=26;fillColor=#e0e0e0;horizontalStack=0;resizeParent=1;resizeLast=0;collapsible=1;marginBottom=0;swimlaneFillColor=#ffffff;align=center;rounded=0;shadow=0;comic=0;labelBackgroundColor=none;strokeWidth=1;fontFamily=Verdana;fontSize=14;swimlaneLine=1;" vertex="1" parent="1">
          <mxGeometry x="640" y="-220" width="200" height="82" as="geometry" />
        </mxCell>
        <mxCell id="oJz1TeRl5AYfLEUsqwZG-302" value="uniqueId" style="shape=partialRectangle;top=0;left=0;right=0;bottom=1;html=1;align=left;verticalAlign=middle;fillColor=none;spacingLeft=34;spacingRight=4;whiteSpace=wrap;overflow=hidden;rotatable=0;points=[[0,0.5],[1,0.5]];portConstraint=eastwest;dropTarget=0;fontStyle=5;" vertex="1" parent="oJz1TeRl5AYfLEUsqwZG-301">
          <mxGeometry y="26" width="200" height="30" as="geometry" />
        </mxCell>
        <mxCell id="oJz1TeRl5AYfLEUsqwZG-303" value="PK" style="shape=partialRectangle;top=0;left=0;bottom=0;html=1;fillColor=none;align=left;verticalAlign=middle;spacingLeft=4;spacingRight=4;whiteSpace=wrap;overflow=hidden;rotatable=0;points=[];portConstraint=eastwest;part=1;" vertex="1" connectable="0" parent="oJz1TeRl5AYfLEUsqwZG-302">
          <mxGeometry width="30" height="30" as="geometry" />
        </mxCell>
        <mxCell id="oJz1TeRl5AYfLEUsqwZG-304" value="название типа ответа" style="shape=partialRectangle;top=0;left=0;right=0;bottom=0;html=1;align=left;verticalAlign=top;fillColor=none;spacingLeft=34;spacingRight=4;whiteSpace=wrap;overflow=hidden;rotatable=0;points=[[0,0.5],[1,0.5]];portConstraint=eastwest;dropTarget=0;" vertex="1" parent="oJz1TeRl5AYfLEUsqwZG-301">
          <mxGeometry y="56" width="200" height="26" as="geometry" />
        </mxCell>
        <mxCell id="oJz1TeRl5AYfLEUsqwZG-305" value="" style="shape=partialRectangle;top=0;left=0;bottom=0;html=1;fillColor=none;align=left;verticalAlign=top;spacingLeft=4;spacingRight=4;whiteSpace=wrap;overflow=hidden;rotatable=0;points=[];portConstraint=eastwest;part=1;" vertex="1" connectable="0" parent="oJz1TeRl5AYfLEUsqwZG-304">
          <mxGeometry width="30" height="26" as="geometry" />
        </mxCell>
        <mxCell id="oJz1TeRl5AYfLEUsqwZG-311" value="" style="edgeStyle=entityRelationEdgeStyle;fontSize=12;html=1;endArrow=ERmany;rounded=0;entryX=1;entryY=0.5;entryDx=0;entryDy=0;exitX=0;exitY=0.5;exitDx=0;exitDy=0;" edge="1" parent="1" source="oJz1TeRl5AYfLEUsqwZG-304" target="oJz1TeRl5AYfLEUsqwZG-308">
          <mxGeometry width="100" height="100" relative="1" as="geometry">
            <mxPoint x="650" y="-371" as="sourcePoint" />
            <mxPoint x="590" y="-275" as="targetPoint" />
          </mxGeometry>
        </mxCell>
        <mxCell id="oJz1TeRl5AYfLEUsqwZG-312" value="" style="edgeStyle=entityRelationEdgeStyle;fontSize=12;html=1;endArrow=ERmany;rounded=0;entryX=1;entryY=0.5;entryDx=0;entryDy=0;exitX=0;exitY=0.5;exitDx=0;exitDy=0;" edge="1" parent="1" source="oJz1TeRl5AYfLEUsqwZG-14" target="oJz1TeRl5AYfLEUsqwZG-287">
          <mxGeometry width="100" height="100" relative="1" as="geometry">
            <mxPoint x="650" y="-371" as="sourcePoint" />
            <mxPoint x="590" y="-275" as="targetPoint" />
          </mxGeometry>
        </mxCell>
        <mxCell id="oJz1TeRl5AYfLEUsqwZG-313" value="Отчёт по кандидату" style="swimlane;html=1;fontStyle=0;childLayout=stackLayout;horizontal=1;startSize=26;fillColor=#e0e0e0;horizontalStack=0;resizeParent=1;resizeLast=0;collapsible=1;marginBottom=0;swimlaneFillColor=#ffffff;align=center;rounded=0;shadow=0;comic=0;labelBackgroundColor=none;strokeWidth=1;fontFamily=Verdana;fontSize=14" vertex="1" parent="1">
          <mxGeometry x="370" y="-100" width="250" height="280" as="geometry" />
        </mxCell>
        <mxCell id="oJz1TeRl5AYfLEUsqwZG-314" value="uniqueId" style="shape=partialRectangle;top=0;left=0;right=0;bottom=1;html=1;align=left;verticalAlign=middle;fillColor=none;spacingLeft=34;spacingRight=4;whiteSpace=wrap;overflow=hidden;rotatable=0;points=[[0,0.5],[1,0.5]];portConstraint=eastwest;dropTarget=0;fontStyle=5;" vertex="1" parent="oJz1TeRl5AYfLEUsqwZG-313">
          <mxGeometry y="26" width="250" height="30" as="geometry" />
        </mxCell>
        <mxCell id="oJz1TeRl5AYfLEUsqwZG-315" value="PK" style="shape=partialRectangle;top=0;left=0;bottom=0;html=1;fillColor=none;align=left;verticalAlign=middle;spacingLeft=4;spacingRight=4;whiteSpace=wrap;overflow=hidden;rotatable=0;points=[];portConstraint=eastwest;part=1;" vertex="1" connectable="0" parent="oJz1TeRl5AYfLEUsqwZG-314">
          <mxGeometry width="30" height="30" as="geometry" />
        </mxCell>
        <mxCell id="oJz1TeRl5AYfLEUsqwZG-316" value="id кандидата (фио?)" style="shape=partialRectangle;top=0;left=0;right=0;bottom=0;html=1;align=left;verticalAlign=top;fillColor=none;spacingLeft=34;spacingRight=4;whiteSpace=wrap;overflow=hidden;rotatable=0;points=[[0,0.5],[1,0.5]];portConstraint=eastwest;dropTarget=0;" vertex="1" parent="oJz1TeRl5AYfLEUsqwZG-313">
          <mxGeometry y="56" width="250" height="24" as="geometry" />
        </mxCell>
        <mxCell id="oJz1TeRl5AYfLEUsqwZG-317" value="" style="shape=partialRectangle;top=0;left=0;bottom=0;html=1;fillColor=none;align=left;verticalAlign=top;spacingLeft=4;spacingRight=4;whiteSpace=wrap;overflow=hidden;rotatable=0;points=[];portConstraint=eastwest;part=1;" vertex="1" connectable="0" parent="oJz1TeRl5AYfLEUsqwZG-316">
          <mxGeometry width="30" height="24" as="geometry" />
        </mxCell>
        <mxCell id="oJz1TeRl5AYfLEUsqwZG-324" value="id HR" style="shape=partialRectangle;top=0;left=0;right=0;bottom=0;html=1;align=left;verticalAlign=top;fillColor=none;spacingLeft=34;spacingRight=4;whiteSpace=wrap;overflow=hidden;rotatable=0;points=[[0,0.5],[1,0.5]];portConstraint=eastwest;dropTarget=0;" vertex="1" parent="oJz1TeRl5AYfLEUsqwZG-313">
          <mxGeometry y="80" width="250" height="24" as="geometry" />
        </mxCell>
        <mxCell id="oJz1TeRl5AYfLEUsqwZG-325" value="" style="shape=partialRectangle;top=0;left=0;bottom=0;html=1;fillColor=none;align=left;verticalAlign=top;spacingLeft=4;spacingRight=4;whiteSpace=wrap;overflow=hidden;rotatable=0;points=[];portConstraint=eastwest;part=1;" vertex="1" connectable="0" parent="oJz1TeRl5AYfLEUsqwZG-324">
          <mxGeometry width="30" height="24" as="geometry" />
        </mxCell>
        <mxCell id="oJz1TeRl5AYfLEUsqwZG-326" value="id техспециалиста" style="shape=partialRectangle;top=0;left=0;right=0;bottom=0;html=1;align=left;verticalAlign=top;fillColor=none;spacingLeft=34;spacingRight=4;whiteSpace=wrap;overflow=hidden;rotatable=0;points=[[0,0.5],[1,0.5]];portConstraint=eastwest;dropTarget=0;" vertex="1" parent="oJz1TeRl5AYfLEUsqwZG-313">
          <mxGeometry y="104" width="250" height="24" as="geometry" />
        </mxCell>
        <mxCell id="oJz1TeRl5AYfLEUsqwZG-327" value="" style="shape=partialRectangle;top=0;left=0;bottom=0;html=1;fillColor=none;align=left;verticalAlign=top;spacingLeft=4;spacingRight=4;whiteSpace=wrap;overflow=hidden;rotatable=0;points=[];portConstraint=eastwest;part=1;" vertex="1" connectable="0" parent="oJz1TeRl5AYfLEUsqwZG-326">
          <mxGeometry width="30" height="24" as="geometry" />
        </mxCell>
      </root>
    </mxGraphModel>
  </diagram>
</mxfile>
